<svg width="24" height="18" viewBox="0 0 24 18" fill="none" xmlns="http://www.w3.org/2000/svg">
<path d="M11.5437 11.7231C11.5834 11.7783 11.6357 11.8233 11.696 11.8542C11.7564 11.8851 11.8232 11.9012 11.8909 11.901C11.9582 11.9012 12.0245 11.8851 12.0844 11.8542C12.1442 11.8232 12.1958 11.7783 12.2349 11.7231L13.6575 9.69091C13.7087 9.6196 13.7363 9.53385 13.7363 9.44586C13.7363 9.35787 13.7087 9.27212 13.6575 9.20081L12.2349 7.17173C12.1951 7.11772 12.1433 7.07399 12.0835 7.04414C12.0236 7.01429 11.9576 6.99917 11.8909 7.00003C11.8237 6.99918 11.7572 7.01428 11.6969 7.04411C11.6366 7.07394 11.5841 7.11766 11.5437 7.17173L10.1211 9.20081C10.0712 9.27265 10.0444 9.3582 10.0444 9.44586C10.0444 9.53352 10.0712 9.61906 10.1211 9.69091L11.5437 11.7231ZM10.9827 9.44742L11.8909 8.15505L12.799 9.44742L11.8909 10.7398L10.9827 9.44742Z" fill="#D5A929"/>
<path d="M1.75429 7.45771L4.03243 13.8134V16.7166C4.03243 16.8292 4.07679 16.9371 4.15585 17.0168C4.2349 17.0964 4.34212 17.1411 4.45391 17.1411H18.7394C18.8515 17.1411 18.959 17.0965 19.0385 17.017C19.118 16.9374 19.1631 16.8294 19.164 16.7166V13.8134L21.4328 7.45771C21.6544 7.47536 21.8772 7.44666 22.0872 7.37342C22.2972 7.30018 22.49 7.18397 22.6533 7.03211C22.8166 6.88025 22.9469 6.69601 23.0361 6.49098C23.1253 6.28594 23.1715 6.06454 23.1716 5.84069C23.1716 5.411 23.0021 4.99891 22.7004 4.69507C22.3987 4.39123 21.9896 4.22054 21.5629 4.22054C21.1363 4.22054 20.7271 4.39123 20.4255 4.69507C20.1238 4.99891 19.9543 5.411 19.9543 5.84069C19.9535 5.93596 19.9618 6.03109 19.9792 6.12476L15.8662 8.0914L13.1293 4.16435C13.4918 3.84805 13.7497 3.42772 13.8683 2.95969C13.9869 2.49165 13.9607 1.99828 13.7931 1.54569C13.6255 1.0931 13.3246 0.702908 12.9306 0.427411C12.5366 0.151914 12.0685 0.00427246 11.5889 0.00427246C11.1093 0.00427246 10.6411 0.151914 10.2472 0.427411C9.85322 0.702908 9.55227 1.0931 9.38468 1.54569C9.21709 1.99828 9.19083 2.49165 9.30946 2.95969C9.4281 3.42772 9.68598 3.84805 10.0485 4.16435L7.31161 8.08828L3.19861 6.12163C3.21456 6.02778 3.22288 5.93278 3.22343 5.83756C3.22343 5.51651 3.12887 5.20267 2.95178 4.93573C2.77468 4.66878 2.52302 4.46072 2.22852 4.33786C1.93401 4.215 1.60996 4.18285 1.29732 4.24549C0.984673 4.30812 0.697457 4.46272 0.472054 4.68974C0.246651 4.91676 0.093159 5.206 0.0309704 5.52088C-0.0312182 5.83576 0.000695703 6.16215 0.122683 6.45876C0.24467 6.75537 0.451272 7.00889 0.716318 7.18726C0.981364 7.36563 1.29296 7.46083 1.61173 7.46083L1.75429 7.45771ZM18.3333 14.1662V16.2889H4.89091V14.1662H18.3333ZM0.858579 5.83756C0.85858 5.68493 0.903489 5.53573 0.987748 5.40887C1.07201 5.282 1.19183 5.18318 1.3319 5.12491C1.47197 5.06665 1.62606 5.05156 1.77465 5.08156C1.92324 5.11157 2.0596 5.18532 2.16654 5.29346C2.27349 5.40161 2.34613 5.53929 2.37532 5.68906C2.40451 5.83884 2.38894 5.99397 2.33052 6.1348C2.2721 6.27564 2.17352 6.39584 2.04721 6.48019C1.92091 6.56454 1.77258 6.60923 1.62103 6.60861C1.41853 6.60779 1.22456 6.52619 1.08166 6.38168C0.938753 6.23717 0.858577 6.04152 0.858579 5.83756ZM10.7769 4.5889C11.2996 4.78563 11.8752 4.78563 12.3979 4.5889L15.3795 8.86246C15.4362 8.94541 15.5205 9.00519 15.6171 9.03095C15.7138 9.05672 15.8164 9.04678 15.9064 9.00293L20.3387 6.88332C20.4303 6.98742 20.5344 7.07969 20.6486 7.15803L18.4449 13.3296H4.75145L2.54777 7.183C2.66279 7.10576 2.76703 7.01338 2.85772 6.90829L7.29299 9.0279C7.383 9.07175 7.48563 9.08169 7.58228 9.05593C7.67894 9.03016 7.76329 8.97039 7.81996 8.88743L10.7769 4.5889ZM10.0764 2.36315C10.0764 2.06186 10.165 1.76733 10.3312 1.51681C10.4974 1.26629 10.7337 1.07104 11.0101 0.955739C11.2865 0.840439 11.5906 0.810271 11.884 0.869051C12.1774 0.92783 12.4469 1.07292 12.6584 1.28596C12.8699 1.49901 13.014 1.77045 13.0723 2.06596C13.1307 2.36146 13.1008 2.66776 12.9863 2.94612C12.8718 3.22448 12.6779 3.4624 12.4292 3.62979C12.1805 3.79718 11.888 3.88652 11.5889 3.88652C11.191 3.88407 10.8101 3.72377 10.5287 3.44037C10.2473 3.15697 10.0881 2.7733 10.0856 2.37252L10.0764 2.36315ZM20.8129 5.83756C20.8129 5.68506 20.8578 5.53599 20.9419 5.40919C21.026 5.28239 21.1456 5.18356 21.2855 5.12521C21.4253 5.06685 21.5793 5.05158 21.7278 5.08133C21.8763 5.11108 22.0127 5.18451 22.1198 5.29235C22.2269 5.40018 22.2998 5.53757 22.3293 5.68714C22.3589 5.83671 22.3437 5.99174 22.2857 6.13263C22.2278 6.27352 22.1297 6.39394 22.0038 6.47867C21.8779 6.56339 21.7299 6.60861 21.5785 6.60861C21.3757 6.60779 21.1814 6.52629 21.038 6.38187C20.8946 6.23745 20.8137 6.04181 20.8129 5.83756V5.83756Z" fill="#D5A929"/>
</svg>
