<svg width="17" height="24" viewBox="0 0 17 24" fill="none" xmlns="http://www.w3.org/2000/svg">
<path d="M8.96461 23.2595C13.3813 23.2595 16.9737 18.0432 16.9737 11.6313C16.9737 5.21942 13.372 0 8.96461 0C4.55717 0 0.955566 5.21942 0.955566 11.6313C0.955566 18.0432 4.53857 23.2595 8.96461 23.2595ZM8.96461 0.69613C12.9939 0.69613 16.2825 5.60338 16.2825 11.622C16.2825 17.6405 13.0001 22.5478 8.96461 22.5478C4.92911 22.5478 1.64674 17.6436 1.64674 11.622C1.64674 5.60026 4.93531 0.69613 8.96461 0.69613Z" fill="#D5A929"/>
<path d="M8.96475 21.8673C12.557 21.8673 15.5914 17.1848 15.5914 11.6313C15.5914 6.07788 12.557 1.39539 8.96475 1.39539C5.37247 1.39539 2.33813 6.07788 2.33813 11.6313C2.33813 17.1848 5.36318 21.8673 8.96475 21.8673ZM8.96475 2.09152C12.182 2.09152 14.9002 6.46184 14.9002 11.6313C14.9002 16.8008 12.1727 21.168 8.96475 21.168C5.75681 21.168 3.02931 16.7977 3.02931 11.6282C3.02931 6.45872 5.73821 2.09152 8.96475 2.09152V2.09152Z" fill="#D5A929"/>
<path d="M6.06043 9.70834C6.13819 9.75732 6.23206 9.77333 6.3215 9.75286C6.41093 9.73239 6.48867 9.6771 6.53776 9.59908L9.57836 4.72928C9.60686 4.6906 9.62716 4.64641 9.63791 4.59947C9.64866 4.55253 9.64966 4.50387 9.64086 4.45652C9.63205 4.40918 9.61357 4.36417 9.58668 4.32434C9.55979 4.2845 9.52507 4.25069 9.4846 4.22503C9.44413 4.19936 9.39878 4.1824 9.3515 4.17519C9.30421 4.16799 9.25596 4.17071 9.20976 4.18318C9.16357 4.19564 9.12047 4.21759 9.08309 4.24764C9.04571 4.27769 9.0149 4.31519 8.99259 4.3578L5.952 9.2276C5.90336 9.30591 5.88748 9.40043 5.90781 9.4905C5.92813 9.58058 5.98297 9.65889 6.06043 9.70834Z" fill="#D5A929"/>
<path d="M6.01392 7.33896L7.33119 5.23184C7.3597 5.19316 7.38 5.14897 7.39075 5.10203C7.4015 5.0551 7.4025 5.00643 7.3937 4.95908C7.38489 4.91174 7.36641 4.86674 7.33952 4.8269C7.31263 4.78706 7.27791 4.75325 7.23744 4.72759C7.19697 4.70192 7.15162 4.68496 7.10433 4.67776C7.05705 4.67056 7.0088 4.67327 6.9626 4.68574C6.91641 4.69821 6.87331 4.72015 6.83593 4.7502C6.79855 4.78025 6.76774 4.81776 6.74543 4.86036L5.42816 6.96748C5.38033 7.04601 5.3649 7.14027 5.38518 7.23011C5.40545 7.31994 5.45976 7.39823 5.53659 7.44822C5.61435 7.49721 5.70822 7.51321 5.79766 7.49274C5.88709 7.47227 5.96483 7.41698 6.01392 7.33896Z" fill="#D5A929"/>
</svg>
