<svg width="25" height="26" viewBox="0 0 25 26" fill="none" xmlns="http://www.w3.org/2000/svg">
<path d="M25.0002 16.5942C24.9745 16.7499 24.9527 16.9056 24.9233 17.0594C24.7974 17.7087 24.5078 18.3142 24.0825 18.817C24.0534 18.8517 24.0402 18.91 24.0402 18.9573C24.0379 20.1435 24.0373 21.3296 24.0384 22.5157V25.9991H0.965079V25.8716C0.965079 23.5709 0.9654 21.27 0.966042 18.969C0.967986 18.9019 0.944431 18.8367 0.900227 18.7867C0.461589 18.2617 0.171131 17.6268 0.0594653 16.9488C-0.0848635 16.0844 0.0304071 15.2571 0.439531 14.4859C1.0332 13.3666 1.95421 12.6817 3.19505 12.456C3.42175 12.4164 3.65143 12.3969 3.88148 12.3976C5.74659 12.3932 7.61164 12.3924 9.47663 12.3951H9.61133V8.50905H12.2127C11.9974 8.45495 11.7778 8.42148 11.5742 8.34441C10.5141 7.94372 9.86901 7.1799 9.65501 6.05218C9.54552 5.47518 9.66637 4.93165 9.88787 4.39999C10.3651 3.25455 10.9992 2.20097 11.6968 1.18202C11.9548 0.805075 12.2094 0.425597 12.4665 0.0472874C12.4752 0.0344435 12.4858 0.0223794 12.5021 0C12.5512 0.071225 12.5972 0.135054 12.6405 0.201025C13.1397 0.958617 13.6523 1.70784 14.1329 2.47789C14.5866 3.20454 14.9796 3.96719 15.2504 4.78531C15.539 5.66238 15.3768 6.48497 14.8716 7.23595C14.4304 7.89196 13.81 8.29498 13.0387 8.45397C12.9549 8.4711 12.8699 8.48122 12.7858 8.50593H15.3837V12.3951H15.5111C17.4274 12.3951 19.3439 12.3873 21.26 12.3996C22.1221 12.405 22.893 12.7061 23.5648 13.2521C24.1604 13.7365 24.5861 14.3468 24.8113 15.087C24.8932 15.3564 24.9267 15.6409 24.9816 15.9184C24.9866 15.9433 24.9945 15.9676 25.0008 15.9921L25.0002 16.5942ZM22.1096 24.0585V20.0325C20.6007 20.41 19.3358 19.9763 18.2645 18.8803C17.4826 19.7213 16.527 20.1711 15.3812 20.1699C14.2354 20.1687 13.2819 19.7165 12.501 18.8748C11.7153 19.7206 10.7596 20.1705 9.61441 20.1699C8.46921 20.1693 7.51491 19.7174 6.73784 18.8803C5.66192 19.9798 4.39625 20.4098 2.89293 20.0329V24.0585H22.1096ZM19.2205 16.2858C19.2373 16.4284 19.2456 16.5641 19.2698 16.6966C19.3824 17.3108 19.7005 17.7728 20.2689 18.0394C20.6852 18.234 21.1238 18.2729 21.5706 18.1881C22.1729 18.074 22.6273 17.7519 22.8903 17.1808C23.0695 16.7916 23.1111 16.3808 23.0551 15.9598C23.002 15.5601 22.8519 15.2009 22.5722 14.907C22.196 14.5108 21.7209 14.3411 21.1911 14.3411C15.4328 14.3376 9.67452 14.3376 3.91612 14.3411C3.72441 14.34 3.53313 14.3595 3.34554 14.3995C2.76669 14.5276 2.3414 14.8619 2.09912 15.415C1.91765 15.8289 1.88243 16.2634 1.96441 16.7054C2.07757 17.3151 2.39643 17.7743 2.96143 18.0394C3.38095 18.2359 3.82336 18.275 4.27252 18.1875C4.9447 18.0563 5.42253 17.6729 5.64941 17.0119C5.72754 16.7838 5.75044 16.5363 5.80009 16.2901H7.68406C7.70023 16.4308 7.70869 16.5666 7.73256 16.6988C7.83263 17.2524 8.1055 17.6912 8.59718 17.9701C9.03786 18.2202 9.51357 18.2784 10.0068 18.1906C10.7273 18.0623 11.2178 17.6527 11.4403 16.9436C11.5059 16.7344 11.5234 16.51 11.5632 16.2905H13.4561C13.463 16.3623 13.4686 16.4267 13.4753 16.4909C13.4826 16.5582 13.4878 16.6262 13.4999 16.6929C13.6125 17.3073 13.9287 17.7702 14.4968 18.0372C14.9061 18.2295 15.3356 18.2608 15.7794 18.1929C16.5168 18.0797 17.1072 17.5213 17.2519 16.7828C17.2835 16.6195 17.2998 16.4532 17.3233 16.286L19.2205 16.2858ZM11.5463 10.4533V12.3865H13.458V10.4533H11.5463ZM12.5027 3.52019C12.3713 3.75371 12.2504 3.96486 12.1319 4.17775C11.9269 4.54594 11.7212 4.91413 11.6085 5.32591C11.5804 5.42789 11.5409 5.53297 11.5432 5.63572C11.5548 6.13722 11.9858 6.55036 12.4842 6.56243C13.0594 6.57547 13.6242 5.99944 13.4018 5.32922C13.1891 4.68761 12.8289 4.12832 12.5027 3.52116V3.52019Z" fill="#CD9B14"/>
</svg>
