<svg width="24" height="27" viewBox="0 0 24 27" fill="none" xmlns="http://www.w3.org/2000/svg">
<path d="M18.5149 1.03015C18.4628 0.958314 18.3904 0.903929 18.3072 0.874067C16.1593 0.00936595 12.4461 0 12.2881 0C12.13 0 8.41995 9.67542e-07 6.27202 0.874067C6.18881 0.903929 6.1164 0.958314 6.0643 1.03015L4.86795 2.63469L2.02577 4.27356C1.95817 4.31233 1.90118 4.36745 1.86005 4.43394C1.81892 4.50044 1.79495 4.57621 1.7902 4.6544L0.956391 19.8132C0.949551 19.9283 0.985445 20.0419 1.05703 20.1318C1.12862 20.2218 1.2308 20.2818 1.34382 20.3002L3.67153 20.6904V25.7225C3.67153 25.8467 3.72054 25.9658 3.80773 26.0536C3.89492 26.1414 4.01314 26.1908 4.13644 26.1908H20.4428C20.5661 26.1908 20.6843 26.1414 20.7715 26.0536C20.8587 25.9658 20.9077 25.8467 20.9077 25.7225V20.6966L23.2354 20.3064C23.3484 20.2881 23.4506 20.2281 23.5222 20.1381C23.5938 20.0481 23.6297 19.9346 23.6228 19.8195L22.7891 4.66065C22.7843 4.58245 22.7603 4.50668 22.7192 4.44018C22.678 4.37369 22.6211 4.31857 22.5535 4.27981L19.7113 2.64093L18.5149 1.03015ZM18.7907 2.95934C17.8609 3.73975 15.5859 4.208 13.8502 4.45774C15.2481 3.49002 17.2193 2.3631 18.0128 1.9167L18.7907 2.95934ZM12.2818 0.9365C13.8553 0.946877 15.424 1.11312 16.9652 1.43284C15.6727 2.17268 13.407 3.52124 12.2818 4.47023C11.1598 3.53373 8.89418 2.17268 7.6017 1.43284C9.14661 1.10914 10.7194 0.939754 12.2974 0.927135L12.2818 0.9365ZM6.56025 1.9167C7.35371 2.3631 9.32495 3.47753 10.7197 4.45774C8.9871 4.21737 6.70592 3.74288 5.78228 2.95934L6.56025 1.9167ZM12.2974 25.2543H4.61067V23.6653H19.9871V25.2543H12.2974ZM22.6806 19.4355L21.0844 19.704L20.2878 9.2651C20.2831 9.20361 20.2664 9.14365 20.2388 9.08864C20.2111 9.03364 20.1729 8.98466 20.1264 8.94452C20.0799 8.90437 20.0261 8.87383 19.9679 8.85466C19.9097 8.83548 19.8483 8.82804 19.7872 8.83275C19.7262 8.83747 19.6666 8.85424 19.612 8.88213C19.5574 8.91002 19.5087 8.94847 19.4689 8.99528C19.429 9.0421 19.3987 9.09636 19.3797 9.15498C19.3606 9.21359 19.3533 9.27541 19.3579 9.3369L20.1483 19.6852C20.0972 19.7286 20.0561 19.7825 20.0277 19.8434C19.9993 19.9043 19.9845 19.9707 19.984 20.038V22.7288H4.60757V20.038C4.60714 19.9707 4.59227 19.9043 4.56391 19.8434C4.53555 19.7825 4.49437 19.7286 4.44329 19.6852L5.23367 9.3369C5.24312 9.21271 5.20324 9.08983 5.12273 8.99528C5.04223 8.90074 4.92769 8.84227 4.80439 8.83275C4.68108 8.82323 4.55911 8.86343 4.46523 8.94452C4.37136 9.0256 4.31328 9.14092 4.30383 9.2651L3.50724 19.704L1.91105 19.4355L2.70763 4.95096L5.09731 3.57431C6.79582 5.11953 11.6774 5.51598 12.2601 5.55656H12.3253C12.908 5.51598 17.7896 5.11953 19.4881 3.57431L21.8778 4.95096L22.6806 19.4355Z" fill="#D5A929"/>
<path d="M17.3059 20.834C16.9765 20.8558 16.6464 20.8054 16.3382 20.6863C16.03 20.5672 15.751 20.3822 15.5206 20.1441C14.6807 19.2076 14.8419 17.5781 14.8419 17.5625C14.8554 17.4383 14.8195 17.3138 14.7419 17.2163C14.6643 17.1188 14.5514 17.0564 14.4281 17.0427C14.3048 17.0291 14.1812 17.0653 14.0844 17.1435C13.9876 17.2216 13.9256 17.3353 13.912 17.4595C13.912 17.5438 13.7012 19.5073 14.8201 20.7653C15.1356 21.1049 15.5211 21.3709 15.9495 21.5445C16.3778 21.7182 16.8386 21.7953 17.2997 21.7705C17.423 21.7705 17.5413 21.7212 17.6285 21.6334C17.7157 21.5455 17.7646 21.4264 17.7646 21.3023C17.7646 21.1781 17.7157 21.059 17.6285 20.9712C17.5413 20.8833 17.423 20.834 17.2997 20.834H17.3059Z" fill="#D5A929"/>
<path d="M10.1493 17.0473C10.0269 17.0607 9.91471 17.1224 9.83743 17.219C9.76014 17.3155 9.72405 17.439 9.73709 17.5624C9.73709 17.5624 9.89828 19.2012 9.05832 20.144C8.82791 20.3821 8.54898 20.567 8.24078 20.6861C7.93258 20.8052 7.60243 20.8556 7.27303 20.8339C7.14972 20.8339 7.03143 20.8832 6.94424 20.971C6.85705 21.0588 6.80811 21.1779 6.80811 21.3021C6.80811 21.4263 6.85705 21.5454 6.94424 21.6332C7.03143 21.721 7.14972 21.7704 7.27303 21.7704C7.73411 21.7952 8.19502 21.718 8.62337 21.5444C9.05172 21.3707 9.43713 21.1048 9.7526 20.7652C10.8715 19.5165 10.6824 17.5436 10.6607 17.4594C10.6542 17.3984 10.6357 17.3394 10.6065 17.2856C10.5772 17.2319 10.5376 17.1845 10.4901 17.1462C10.4426 17.1079 10.388 17.0795 10.3295 17.0625C10.271 17.0455 10.2098 17.0404 10.1493 17.0473Z" fill="#D5A929"/>
</svg>
