<svg width="20" height="25" viewBox="0 0 20 25" fill="none" xmlns="http://www.w3.org/2000/svg">
<path d="M9.76161 0C6.9256 0 5.31082 1.30173 4.45536 2.39119C3.49256 3.64202 2.96828 5.17885 2.9645 6.76152C2.9645 7.41083 2.63598 7.69802 2.05328 8.16939C1.47058 8.64076 0.661621 9.27758 0.661621 10.6012C0.661621 19.8069 3.2001 24.477 8.19954 24.477C11.6895 24.477 13.1927 21.5582 14.6464 18.7393C14.854 18.3335 15.0617 17.9277 15.2663 17.5344C15.7157 16.704 16.255 15.8986 16.7757 15.1213C18.0155 13.2483 19.3142 11.3254 19.3142 9.08404C19.3266 6.35571 18.3936 0 9.76161 0ZM15.8862 14.5157C15.353 15.3149 14.7982 16.1421 14.3364 17.0131C14.1195 17.4158 13.9087 17.8278 13.6949 18.2399C12.3311 20.887 11.0417 23.3875 8.21187 23.3875C3.93151 23.3875 1.75884 19.0858 1.75884 10.6043C1.75884 9.80826 2.17105 9.48361 2.73825 9.04346C3.30545 8.6033 4.06172 7.98833 4.06172 6.77713C4.06172 4.8136 5.255 1.10195 9.77402 1.10195C17.1507 1.10195 18.2542 6.11221 18.2542 9.09964C18.2356 10.9976 17.098 12.7083 15.8862 14.5157Z" fill="#D5A929"/>
<path d="M8.03845 17.1566C7.50574 17.1566 6.98492 17.3157 6.54199 17.6138C6.09906 17.9119 5.75388 18.3355 5.55002 18.8312C5.34616 19.3269 5.29279 19.8723 5.39672 20.3986C5.50064 20.9248 5.75721 21.4081 6.1339 21.7875C6.51058 22.1669 6.99052 22.4253 7.51299 22.5299C8.03547 22.6346 8.577 22.5809 9.06916 22.3756C9.56132 22.1702 9.98196 21.8225 10.2779 21.3764C10.5739 20.9303 10.7319 20.4059 10.7319 19.8693C10.731 19.1501 10.447 18.4606 9.94209 17.9521C9.43715 17.4435 8.75254 17.1574 8.03845 17.1566ZM8.03845 21.4895C7.72029 21.4895 7.40924 21.3945 7.14471 21.2164C6.88017 21.0384 6.67403 20.7854 6.55228 20.4893C6.43053 20.1933 6.39865 19.8675 6.46072 19.5533C6.52279 19.239 6.676 18.9503 6.90097 18.7237C7.12594 18.4971 7.41253 18.3428 7.72457 18.2803C8.03661 18.2178 8.36009 18.2499 8.65403 18.3725C8.94797 18.4952 9.19917 18.7028 9.37593 18.9692C9.55268 19.2357 9.64705 19.5489 9.64705 19.8693C9.64623 20.2988 9.47644 20.7104 9.17495 21.014C8.87345 21.3177 8.46483 21.4887 8.03845 21.4895Z" fill="#D5A929"/>
<path d="M10.6822 2.61584C9.55693 2.61573 8.46038 2.97384 7.54926 3.63902C6.63814 4.3042 5.95912 5.2424 5.60915 6.31957C5.25917 7.39675 5.25622 8.55777 5.60067 9.63674C5.94512 10.7157 6.61931 11.6574 7.52701 12.3273C7.62206 12.3929 7.70333 12.4767 7.76621 12.574C7.82909 12.6712 7.87241 12.7799 7.89356 12.894C7.91472 13.0081 7.91335 13.1252 7.88955 13.2388C7.86576 13.3523 7.81998 13.46 7.75486 13.5557C7.68973 13.6514 7.60653 13.7333 7.50999 13.7966C7.41345 13.86 7.30543 13.9035 7.19217 13.9248C7.07892 13.9461 6.96264 13.9448 6.84991 13.9208C6.73719 13.8968 6.63024 13.8508 6.5352 13.7852C6.47639 13.7442 6.41011 13.7152 6.3402 13.7C6.27028 13.6848 6.19809 13.6836 6.12772 13.6965C6.05735 13.7094 5.99018 13.7362 5.93006 13.7752C5.86995 13.8143 5.81806 13.8648 5.77736 13.9241C5.73666 13.9833 5.70793 14.05 5.69284 14.1205C5.67774 14.1909 5.67662 14.2636 5.68943 14.3345C5.70224 14.4053 5.72876 14.473 5.76752 14.5335C5.80629 14.5941 5.85649 14.6463 5.91531 14.6873C6.34317 14.9858 6.87122 15.1008 7.38332 15.0072C7.89541 14.9135 8.34961 14.6188 8.64596 14.1879C8.9423 13.7569 9.05655 13.2251 8.96354 12.7093C8.87054 12.1936 8.57788 11.7361 8.15001 11.4377C7.32361 10.8183 6.74691 9.91933 6.52589 8.906C7.25692 8.21269 8.22814 7.83478 9.2321 7.85299C10.2361 7.8712 11.1931 8.2841 11.8989 9.00348C12.6046 9.72285 13.0031 10.6917 13.0092 11.703C13.0153 12.7142 12.6284 13.6878 11.9313 14.4157C11.8807 14.4665 11.8406 14.5268 11.8132 14.5932C11.7858 14.6597 11.7717 14.7309 11.7717 14.8028C11.7717 14.8748 11.7858 14.946 11.8132 15.0124C11.8406 15.0788 11.8807 15.1392 11.9313 15.1899C12.0336 15.2874 12.1687 15.342 12.3095 15.3429C12.382 15.3428 12.4539 15.3278 12.5205 15.2989C12.5871 15.2699 12.6471 15.2275 12.6969 15.1743C13.5229 14.2935 14.0006 13.1389 14.0398 11.928C14.0791 10.7172 13.6773 9.53362 12.9101 8.60047C12.1429 7.66733 11.0633 7.04901 9.87477 6.86206C8.68626 6.67512 7.47089 6.93243 6.45771 7.58553C6.56734 6.49479 7.08809 5.48792 7.91271 4.77229C8.73733 4.05666 9.80305 3.68676 10.8903 3.73877C11.9776 3.79078 13.0037 4.26075 13.7573 5.05188C14.5108 5.84301 14.9345 6.89506 14.941 7.99135C14.941 8.13624 14.9981 8.27519 15.0998 8.37764C15.2015 8.48009 15.3395 8.53764 15.4834 8.53764C15.6272 8.53764 15.7652 8.48009 15.8669 8.37764C15.9686 8.27519 16.0258 8.13624 16.0258 7.99135C16.0233 6.56536 15.4593 5.19857 14.4576 4.19082C13.4559 3.18308 12.0981 2.61667 10.6822 2.61584Z" fill="#D5A929"/>
</svg>
