<svg width="26" height="24" viewBox="0 0 26 24" fill="none" xmlns="http://www.w3.org/2000/svg">
<path d="M21.8336 17.5875C22.6549 17.9715 23.3027 18.8362 23.6065 19.9413C23.6065 19.9653 23.616 19.9883 23.6328 20.0053C23.6497 20.0223 23.6725 20.0318 23.6964 20.0318C23.7202 20.0318 23.7431 20.0223 23.7599 20.0053C23.7768 19.9883 23.7863 19.9653 23.7863 19.9413C24.0962 18.8362 24.7378 17.9715 25.5592 17.5875C25.5784 17.579 25.5947 17.565 25.6061 17.5472C25.6176 17.5295 25.6237 17.5088 25.6237 17.4877C25.6237 17.4665 25.6176 17.4458 25.6061 17.4281C25.5947 17.4103 25.5784 17.3963 25.5592 17.3878C24.7378 17.0038 24.0869 16.1391 23.7863 15.034C23.7863 15.01 23.7768 14.987 23.7599 14.97C23.7431 14.953 23.7202 14.9435 23.6964 14.9435C23.6725 14.9435 23.6497 14.953 23.6328 14.97C23.616 14.987 23.6065 15.01 23.6065 15.034C23.2965 16.136 22.6549 17.0038 21.8336 17.3878C21.8144 17.3963 21.7981 17.4103 21.7866 17.4281C21.7751 17.4458 21.769 17.4665 21.769 17.4877C21.769 17.5088 21.7751 17.5295 21.7866 17.5472C21.7981 17.565 21.8144 17.579 21.8336 17.5875V17.5875Z" fill="#D5A929"/>
<path d="M1.83274 5.15707C1.52279 6.25901 0.881214 7.12372 0.0598554 7.50768C0.0417415 7.51761 0.0266536 7.53227 0.0161178 7.55012C0.00558209 7.56798 0 7.58836 0 7.60913C0 7.6299 0.00558209 7.65029 0.0161178 7.66815C0.0266536 7.686 0.0417415 7.70066 0.0598554 7.71059C0.881214 8.09455 1.53209 8.95925 1.83274 10.0612C1.83669 10.0827 1.84797 10.1022 1.86467 10.1162C1.88138 10.1302 1.90242 10.1378 1.92415 10.1378C1.94588 10.1378 1.96692 10.1302 1.98363 10.1162C2.00033 10.1022 2.01169 10.0827 2.01564 10.0612C2.32558 8.95925 2.96716 8.09455 3.78852 7.71059C3.80755 7.70145 3.82365 7.68707 3.83491 7.66912C3.84616 7.65116 3.85208 7.63036 3.85208 7.60913C3.85208 7.5879 3.84616 7.5671 3.83491 7.54914C3.82365 7.53119 3.80755 7.51681 3.78852 7.50768C2.96716 7.12372 2.31628 6.25901 2.01564 5.15707C2.01169 5.13555 2.00033 5.1161 1.98363 5.1021C1.96692 5.0881 1.94588 5.08044 1.92415 5.08044C1.90242 5.08044 1.88138 5.0881 1.86467 5.1021C1.84797 5.1161 1.83669 5.13555 1.83274 5.15707V5.15707Z" fill="#D5A929"/>
<path d="M6.99945 3.09048C6.99945 3.10538 7.00533 3.11967 7.0158 3.13021C7.02626 3.14074 7.0405 3.14667 7.0553 3.14667C7.07009 3.14667 7.08426 3.14074 7.09472 3.13021C7.10518 3.11967 7.11107 3.10538 7.11107 3.09048C7.18008 2.78352 7.31337 2.49495 7.50205 2.24408C7.69074 1.9932 7.93049 1.78581 8.20518 1.63577C8.21705 1.63029 8.22711 1.6215 8.23417 1.61043C8.24122 1.59936 8.24499 1.58648 8.24499 1.57333C8.24499 1.56018 8.24122 1.54731 8.23417 1.53625C8.22711 1.52518 8.21705 1.51637 8.20518 1.5109C7.93012 1.36135 7.69012 1.15411 7.50137 0.903154C7.31263 0.6522 7.17952 0.363383 7.11107 0.0561976C7.11107 0.041295 7.10518 0.0269998 7.09472 0.016462C7.08426 0.00592429 7.07009 0 7.0553 0C7.0405 0 7.02626 0.00592429 7.0158 0.016462C7.00533 0.0269998 6.99945 0.041295 6.99945 0.0561976C6.93161 0.36405 6.79846 0.653467 6.60907 0.904573C6.41967 1.15568 6.17858 1.36252 5.90231 1.5109C5.89135 1.51716 5.88224 1.52624 5.8759 1.53721C5.86956 1.54818 5.86621 1.56064 5.86621 1.57333C5.86621 1.58602 5.86956 1.59849 5.8759 1.60946C5.88224 1.62043 5.89135 1.6295 5.90231 1.63577C6.17783 1.78514 6.41828 1.99228 6.60755 2.24323C6.79683 2.49417 6.93046 2.78309 6.99945 3.09048V3.09048Z" fill="#D5A929"/>
<path d="M16.7938 20.7967C16.7938 20.7818 16.7879 20.7675 16.7775 20.7569C16.767 20.7464 16.7528 20.7405 16.738 20.7405C16.7232 20.7405 16.709 20.7464 16.6985 20.7569C16.6881 20.7675 16.6822 20.7818 16.6822 20.7967C16.6132 21.1036 16.4799 21.3922 16.2912 21.6431C16.1025 21.8939 15.8628 22.1013 15.5881 22.2514C15.5763 22.2568 15.5662 22.2656 15.5592 22.2767C15.5521 22.2878 15.5483 22.3006 15.5483 22.3138C15.5483 22.3269 15.5521 22.3398 15.5592 22.3509C15.5662 22.362 15.5763 22.3708 15.5881 22.3762C15.8632 22.5258 16.1032 22.733 16.292 22.984C16.4807 23.2349 16.6137 23.5237 16.6822 23.8309C16.6822 23.8458 16.6881 23.8601 16.6985 23.8707C16.709 23.8812 16.7232 23.8871 16.738 23.8871C16.7528 23.8871 16.767 23.8812 16.7775 23.8707C16.7879 23.8601 16.7938 23.8458 16.7938 23.8309C16.8616 23.5231 16.9949 23.2337 17.1843 22.9826C17.3737 22.7314 17.6148 22.5246 17.891 22.3762C17.9029 22.3708 17.913 22.362 17.92 22.3509C17.9271 22.3398 17.9308 22.3269 17.9308 22.3138C17.9308 22.3006 17.9271 22.2878 17.92 22.2767C17.913 22.2656 17.9029 22.2568 17.891 22.2514C17.6155 22.102 17.375 21.8949 17.1857 21.6439C16.9964 21.393 16.8628 21.1041 16.7938 20.7967V20.7967Z" fill="#D5A929"/>
<path d="M21.0307 3.51514H4.60352V20.0599H21.0307V3.51514ZM20.1008 19.1234H5.53336V4.45164H20.1008V19.1234Z" fill="#D5A929"/>
</svg>
