<svg width="26" height="18" viewBox="0 0 26 18" fill="none" xmlns="http://www.w3.org/2000/svg">
<path d="M22.0663 3.29024C22.1269 3.18792 22.1448 3.06554 22.1159 2.94998C22.094 2.86386 22.0474 2.78612 21.982 2.72649C21.9165 2.66685 21.835 2.62795 21.7478 2.61463C21.6605 2.60132 21.5713 2.61418 21.4912 2.65161C21.4112 2.68904 21.3438 2.74938 21.2976 2.82511L19.8502 5.24128C19.0016 4.81736 18.1154 4.47455 17.2032 4.21738L18.0494 1.31734C18.0818 1.20185 18.0674 1.0781 18.0093 0.973311C17.9511 0.868523 17.8541 0.791277 17.7394 0.758563C17.6826 0.741505 17.6231 0.736087 17.5642 0.742625C17.5053 0.749163 17.4483 0.767528 17.3965 0.796631C17.3448 0.825734 17.2994 0.864984 17.263 0.912064C17.2266 0.959145 17.1999 1.01309 17.1846 1.07073L16.3291 4.00822C15.3982 3.8075 14.451 3.6936 13.4994 3.66796V0.452646C13.4994 0.332597 13.452 0.217468 13.3677 0.132581C13.2834 0.0476945 13.1692 0 13.05 0C12.9308 0 12.8164 0.0476945 12.7321 0.132581C12.6479 0.217468 12.6005 0.332597 12.6005 0.452646V3.66172C11.6498 3.68713 10.7036 3.80103 9.7738 4.00198L8.91835 1.06449C8.90175 1.00745 8.87403 0.954316 8.83677 0.908216C8.79952 0.862115 8.75349 0.823977 8.7014 0.796031C8.62385 0.75258 8.53519 0.733395 8.44677 0.740929C8.35835 0.748463 8.2742 0.782365 8.205 0.838319C8.13581 0.894273 8.08469 0.969734 8.05828 1.05506C8.03187 1.14038 8.03132 1.2317 8.05669 1.31734L8.89973 4.21738C7.98839 4.47403 7.10317 4.81686 6.25588 5.24128L4.80845 2.82511C4.78042 2.76986 4.74139 2.72099 4.69381 2.68156C4.64624 2.64213 4.59111 2.61298 4.53188 2.59591C4.47264 2.57883 4.4106 2.57421 4.34951 2.58233C4.28843 2.59045 4.22965 2.61112 4.17683 2.64308C4.12402 2.67504 4.07824 2.7176 4.04244 2.76811C4.00664 2.81861 3.98159 2.876 3.96874 2.93669C3.95589 2.99738 3.95553 3.06008 3.96775 3.12091C3.97998 3.18173 4.00452 3.23936 4.03979 3.29024L5.46247 5.66895C4.71944 6.09698 4.01244 6.58559 3.34862 7.12989L1.68107 5.4317C1.59787 5.35083 1.48675 5.30563 1.37112 5.30563C1.25549 5.30563 1.14437 5.35083 1.06117 5.4317C1.01939 5.47213 0.986071 5.52059 0.96318 5.57421C0.94029 5.62782 0.928313 5.68551 0.927918 5.74387C0.927767 5.86072 0.973411 5.97292 1.05497 6.05603L2.67909 7.7074C1.89378 8.41398 1.19272 9.21014 0.590049 10.0799C0.544597 10.1522 0.520508 10.2361 0.520508 10.3218C0.520508 10.4074 0.544597 10.4913 0.590049 10.5637C2.01266 12.5567 3.88575 14.1801 6.05444 15.2999C8.22314 16.4197 10.6252 17.0038 13.0623 17.0038C15.4994 17.0038 17.9015 16.4197 20.0702 15.2999C22.2389 14.1801 24.112 12.5567 25.5346 10.5637C25.5801 10.4913 25.6042 10.4074 25.6042 10.3218C25.6042 10.2361 25.5801 10.1522 25.5346 10.0799C24.9326 9.20958 24.2315 8.41334 23.4455 7.7074L25.0697 6.05603C25.151 5.97249 25.1975 5.86083 25.1998 5.74387C25.1994 5.68551 25.1875 5.62782 25.1646 5.57421C25.1417 5.52059 25.1084 5.47213 25.0666 5.4317C24.9844 5.3487 24.873 5.30161 24.7566 5.30059C24.64 5.30342 24.529 5.35151 24.4467 5.43482L22.7543 7.14238C22.0913 6.59843 21.3855 6.10984 20.6436 5.68144L22.0663 3.29024ZM6.42016 10.3327C6.42273 11.3194 6.64132 12.2934 7.06026 13.1853C7.4792 14.0772 8.0882 14.865 8.84396 15.4928C5.92097 14.5918 3.35407 12.7863 1.50755 10.3327C3.35379 7.88229 5.918 6.0783 8.83776 5.17573C8.08337 5.80365 7.47561 6.59127 7.05776 7.4826C6.63991 8.37392 6.42222 9.34703 6.42016 10.3327ZM17.2683 15.4928C18.026 14.8671 18.6364 14.0798 19.0555 13.1878C19.4747 12.2957 19.6921 11.3212 19.6921 10.3343C19.6921 9.34739 19.4747 8.37282 19.0555 7.48078C18.6364 6.58874 18.026 5.80147 17.2683 5.17573C20.1894 6.07905 22.7554 7.88276 24.6048 10.3327C22.7566 12.7859 20.1887 14.5912 17.2652 15.4928H17.2683ZM18.7933 10.3327C18.7939 11.4757 18.4579 12.5931 17.8279 13.5438C17.1978 14.4944 16.3021 15.2355 15.2538 15.6733C14.2055 16.1111 13.0519 16.226 11.9388 16.0034C10.8257 15.7808 9.80311 15.2307 9.00045 14.4228C8.19779 13.6148 7.65107 12.5852 7.42945 11.4643C7.20783 10.3433 7.32131 9.18135 7.75544 8.12534C8.18958 7.06933 8.92494 6.16671 9.86847 5.53165C10.812 4.8966 11.9213 4.55764 13.0562 4.55764C14.5762 4.56011 16.0331 5.16935 17.1079 6.25185C18.1827 7.33435 18.7877 8.80182 18.7902 10.3327H18.7933Z" fill="#D5A929"/>
<path d="M13.0532 7.08618C12.4149 7.08618 11.7909 7.27685 11.2603 7.63406C10.7296 7.99128 10.3161 8.49899 10.0719 9.09297C9.82782 9.68695 9.76415 10.3405 9.8889 10.971C10.0136 11.6014 10.3213 12.1804 10.7728 12.6348C11.2244 13.0891 11.7995 13.3984 12.4256 13.5234C13.0517 13.6484 13.7005 13.5837 14.29 13.3372C14.8796 13.0908 15.3833 12.6738 15.7375 12.139C16.0916 11.6042 16.2803 10.9756 16.2797 10.3327C16.2781 9.47163 15.9375 8.64636 15.3327 8.03779C14.7279 7.42922 13.9082 7.08701 13.0532 7.08618ZM15.3809 10.3327C15.3815 10.7965 15.2455 11.2501 14.9901 11.636C14.7347 12.022 14.3714 12.3229 13.9461 12.5009C13.5208 12.6788 13.0527 12.7256 12.601 12.6355C12.1493 12.5454 11.7342 12.3224 11.4084 11.9946C11.0825 11.6669 10.8605 11.2492 10.7705 10.7943C10.6804 10.3395 10.7263 9.86795 10.9024 9.4394C11.0784 9.01084 11.3768 8.64452 11.7596 8.38678C12.1425 8.12904 12.5927 7.99146 13.0532 7.99146C13.67 7.99146 14.2615 8.23802 14.698 8.677C15.1344 9.11598 15.3801 9.71148 15.3809 10.3327Z" fill="#D5A929"/>
</svg>
