<svg width="28" height="16" viewBox="0 0 28 16" fill="none" xmlns="http://www.w3.org/2000/svg">
<path d="M20.2562 0.152958C20.2123 0.105035 20.1591 0.0667283 20.0999 0.0404117C20.0407 0.0140951 19.9768 0.000335642 19.9121 0H17.8789C17.7555 0 17.6373 0.0493305 17.5501 0.137144C17.4629 0.224958 17.4139 0.344062 17.4139 0.468249C17.4139 0.592437 17.4629 0.711541 17.5501 0.799355C17.6373 0.887168 17.7555 0.936499 17.8789 0.936499H19.7045L25.33 7.17983H15.7558C15.5092 7.17983 15.2726 7.27851 15.0983 7.45413C14.9239 7.62976 14.8259 7.86795 14.8259 8.11632V9.13399H13.177V8.11632C13.177 7.86795 13.079 7.62976 12.9046 7.45413C12.7303 7.27851 12.4938 7.17983 12.2471 7.17983H2.66983L8.29533 0.936499H10.124C10.2473 0.936499 10.3656 0.887168 10.4528 0.799355C10.54 0.711541 10.5889 0.592437 10.5889 0.468249C10.5889 0.344062 10.54 0.224958 10.4528 0.137144C10.3656 0.0493305 10.2473 0 10.124 0H8.09079C8.02606 0.000147734 7.96204 0.0138165 7.90283 0.0401449C7.84361 0.0664734 7.79044 0.104886 7.74672 0.152958L1.39902 7.18295C1.17504 7.21406 0.970016 7.32631 0.82226 7.49868C0.674504 7.67105 0.594112 7.89174 0.596232 8.11945V13.7603C0.596232 13.9587 0.63503 14.1552 0.710419 14.3385C0.785808 14.5218 0.89635 14.6884 1.03565 14.8287C1.17495 14.969 1.34028 15.0802 1.52229 15.1562C1.70429 15.2321 1.8994 15.2712 2.0964 15.2712H11.6737C11.871 15.2716 12.0664 15.2328 12.2488 15.1571C12.4312 15.0813 12.5969 14.9701 12.7365 14.8298C12.8761 14.6894 12.9869 14.5227 13.0625 14.3392C13.1381 14.1557 13.177 13.959 13.177 13.7603V10.0611H14.8352V13.7603C14.8361 14.1613 14.9948 14.5456 15.2766 14.8289C15.5584 15.1121 15.9403 15.2712 16.3384 15.2712H25.9127C26.3106 15.2712 26.6921 15.112 26.9735 14.8287C27.2548 14.5453 27.4128 14.161 27.4128 13.7603V8.10697C27.415 7.87972 27.3351 7.65942 27.188 7.48711C27.0409 7.31481 26.8366 7.20228 26.6132 7.17047L20.2562 0.152958ZM12.2471 13.7603C12.2471 13.9126 12.1871 14.0587 12.0801 14.1665C11.9732 14.2742 11.8281 14.3347 11.6768 14.3347H2.0995C1.94825 14.3347 1.80321 14.2742 1.69625 14.1665C1.5893 14.0587 1.52917 13.9126 1.52917 13.7603V8.10697H12.2471V13.7603ZM26.483 13.7603C26.483 13.9126 26.4229 14.0587 26.316 14.1665C26.209 14.2742 26.064 14.3347 25.9127 14.3347H16.3384C16.2633 14.3351 16.1888 14.3205 16.1192 14.2919C16.0497 14.2632 15.9864 14.2209 15.9331 14.1676C15.8798 14.1142 15.8376 14.0507 15.8087 13.9808C15.7799 13.9109 15.7651 13.836 15.7651 13.7603V8.10697H26.4799L26.483 13.7603Z" fill="#D5A929"/>
</svg>
