<svg width="28" height="28" viewBox="0 0 28 28" fill="none" xmlns="http://www.w3.org/2000/svg">
<path d="M17.3264 0.135879L15.4232 2.05569L13.5171 3.9724C13.4759 4.01309 13.4431 4.06165 13.4207 4.11526C13.3983 4.16886 13.3869 4.22642 13.3869 4.28456C13.3869 4.34271 13.3983 4.40027 13.4207 4.45387C13.4431 4.50747 13.4759 4.55604 13.5171 4.59673L15.9099 7.00666C15.6616 7.34335 15.4858 7.72859 15.394 8.13769C15.3022 8.5468 15.2964 8.97072 15.3768 9.38224L13.3094 11.4644C12.7271 11.4799 12.1728 11.7189 11.7597 12.1324L0.8093 23.1644C0.398267 23.6002 0.172862 24.1807 0.181386 24.7817C0.18991 25.3828 0.431705 25.9566 0.854929 26.3804C1.27815 26.8042 1.84919 27.0443 2.44598 27.0495C3.04277 27.0546 3.61789 26.8243 4.04823 26.4078L14.9987 15.3758C15.412 14.9614 15.6506 14.4023 15.665 13.815L17.7261 11.7391C17.9161 11.7763 18.1092 11.7951 18.3027 11.7953C18.9464 11.7946 19.5726 11.5844 20.088 11.1959L22.4807 13.609C22.5217 13.6494 22.5701 13.6812 22.6233 13.7026C22.6765 13.7241 22.7334 13.7347 22.7907 13.7338C22.848 13.735 22.905 13.7246 22.9583 13.7031C23.0115 13.6817 23.0599 13.6496 23.1006 13.609L26.9099 9.77245C26.9519 9.73221 26.9853 9.68379 27.0082 9.63013C27.031 9.57646 27.0428 9.51868 27.0428 9.46029C27.0428 9.40189 27.031 9.34411 27.0082 9.29045C26.9853 9.23678 26.9519 9.18836 26.9099 9.14812L17.9431 0.114025C17.8573 0.0369512 17.7453 -0.00379274 17.6304 0.000278143C17.5155 0.00434902 17.4066 0.0529229 17.3264 0.135879ZM14.9274 13.3436C14.8841 13.387 14.8506 13.4394 14.8292 13.497C14.8078 13.5547 14.7989 13.6163 14.8034 13.6777C14.8146 13.8773 14.7837 14.0771 14.7126 14.2638C14.6416 14.4505 14.532 14.6199 14.3912 14.7609L3.42833 25.7928C3.16199 26.0611 2.80077 26.2118 2.42411 26.2118C2.04745 26.2118 1.68622 26.0611 1.41989 25.7928C1.15355 25.5246 1.00392 25.1608 1.00392 24.7814C1.00392 24.4021 1.15355 24.0382 1.41989 23.77L12.3703 12.738C12.5111 12.5967 12.68 12.4869 12.8659 12.4158C13.0518 12.3448 13.2505 12.3142 13.4489 12.326C13.5096 12.3298 13.5703 12.3203 13.6271 12.2982C13.6838 12.2761 13.7351 12.2419 13.7774 12.198L15.6898 10.275C15.9555 10.7555 16.3495 11.1513 16.8273 11.4176L14.9274 13.3436ZM17.7169 10.8463C17.397 10.7535 17.1034 10.5862 16.8596 10.3579C16.6159 10.1296 16.429 9.84666 16.314 9.53206C16.199 9.21745 16.1592 8.88 16.1977 8.54701C16.2363 8.21403 16.3522 7.89487 16.536 7.61537L18.1322 9.22616C17.9927 9.08256 17.3418 8.42702 19.4743 10.5747C19.2181 10.7463 18.9283 10.8602 18.6245 10.9087C18.3207 10.9572 18.01 10.9391 17.7138 10.8557L17.7169 10.8463ZM22.7938 12.6881L14.4252 4.25958L15.7177 2.95786L24.0862 11.3863L22.7938 12.6881ZM24.6969 10.7683L16.3283 2.33977L17.6239 1.03803L25.9925 9.46652L24.6969 10.7683Z" fill="#D5A929"/>
</svg>
