<svg width="26" height="23" viewBox="0 0 26 23" fill="none" xmlns="http://www.w3.org/2000/svg">
<path d="M25.3198 2.21848C25.3265 1.77735 25.2005 1.34451 24.9583 0.976903C24.7161 0.609297 24.369 0.324144 23.9628 0.158953C23.5566 -0.00623772 23.1104 -0.0437243 22.6826 0.0514174C22.2549 0.146559 21.8657 0.369866 21.5664 0.691983L15.2466 7.53155L13.638 5.90829C13.1494 5.41819 12.4879 5.14302 11.7984 5.14302C11.1089 5.14302 10.4475 5.41819 9.95893 5.90829L7.84198 8.04349C7.80788 8.07783 4.71153 11.521 2.28155 10.4347C2.18173 10.3903 2.07093 10.3773 1.96366 10.3974C1.85639 10.4174 1.75765 10.4696 1.68028 10.5471C1.37698 10.866 1.16308 11.2602 1.06038 11.6896C0.911609 12.3139 0.955001 13.291 1.99022 14.3305C3.34779 15.6978 5.55456 15.3045 7.0516 14.7988L6.25199 16.1224C6.18868 16.2271 6.16215 16.3503 6.17677 16.472C6.19139 16.5937 6.2463 16.707 6.33258 16.7935L11.8837 22.3813C11.9334 22.4324 11.9927 22.4731 12.0581 22.501C12.1236 22.5289 12.1939 22.5433 12.2649 22.5436C12.3364 22.5434 12.4072 22.529 12.4732 22.5011C12.5391 22.4732 12.599 22.4325 12.6492 22.3813L19.4681 15.5136C19.9547 15.0216 20.2279 14.3554 20.2279 13.6609C20.2279 12.9664 19.9547 12.3003 19.4681 11.8082L17.816 10.1475L24.607 3.78243C24.8262 3.5851 25.0025 3.34437 25.1252 3.07528C25.2479 2.80619 25.3141 2.51451 25.3198 2.21848ZM12.2773 21.2232L10.2967 19.2284L11.8031 17.7113C11.905 17.6086 11.9623 17.4694 11.9623 17.3242C11.9623 17.179 11.905 17.0398 11.8031 16.9371C11.7012 16.8345 11.5629 16.7768 11.4188 16.7768C11.2746 16.7768 11.1364 16.8345 11.0344 16.9371L9.52807 18.4542L7.41429 16.3221L8.85551 13.9341C8.91832 13.8317 8.94582 13.7113 8.93375 13.5916C8.92167 13.4719 8.87066 13.3596 8.78869 13.272C8.70672 13.1845 8.59836 13.1267 8.48041 13.1075C8.36246 13.0884 8.24154 13.109 8.13641 13.1661C7.09189 13.728 4.09166 14.8893 2.76819 13.5564C1.89104 12.6729 2.04907 11.9643 2.25363 11.5866C4.70841 12.3327 7.27789 10.1413 8.25113 9.18603L16.2416 17.2399L12.2773 21.2232ZM17.0071 16.4595L9.00738 8.40874L9.74501 7.66891L17.7385 15.7197L17.0071 16.4595ZM18.7211 12.5761C18.8621 12.7179 18.9739 12.8863 19.0501 13.0716C19.1264 13.257 19.1657 13.4556 19.1657 13.6562C19.1657 13.8569 19.1264 14.0555 19.0501 14.2409C18.9739 14.4262 18.8621 14.5946 18.7211 14.7363L18.5103 14.9486L10.5138 6.89472L10.7245 6.68245C11.0092 6.39651 11.3948 6.23594 11.7969 6.23594C12.199 6.23594 12.5846 6.39651 12.8693 6.68245L18.7211 12.5761ZM23.8848 2.97704L17.066 9.36709L16.0122 8.30572L22.3568 1.43806C22.4556 1.33001 22.5752 1.24351 22.7085 1.18391C22.8418 1.12432 22.9858 1.09288 23.1317 1.09156H23.1502C23.3645 1.09432 23.5732 1.16115 23.7498 1.28358C23.9264 1.40602 24.0629 1.57854 24.1419 1.77923C24.221 1.97992 24.239 2.19972 24.1938 2.41076C24.1485 2.62181 24.0421 2.81457 23.8879 2.96456L23.8848 2.97704Z" fill="#D5A929"/>
</svg>
