<svg width="29" height="19" viewBox="0 0 29 19" fill="none" xmlns="http://www.w3.org/2000/svg">
<path d="M4.27213 8.27856C4.16198 8.27856 4.05627 8.32263 3.97838 8.40108C3.90049 8.47952 3.85677 8.58594 3.85677 8.69688V11.6C3.85181 11.6578 3.85882 11.716 3.87736 11.7709C3.89589 11.8257 3.92555 11.8762 3.96445 11.9189C4.00336 11.9616 4.05069 11.9957 4.10338 12.0191C4.15608 12.0424 4.21298 12.0544 4.27054 12.0544C4.3281 12.0544 4.38508 12.0424 4.43777 12.0191C4.49047 11.9957 4.53772 11.9616 4.57663 11.9189C4.61553 11.8762 4.64519 11.8257 4.66372 11.7709C4.68226 11.716 4.68927 11.6578 4.68431 11.6V8.69688C4.68431 8.58648 4.64098 8.48054 4.56376 8.40218C4.48654 8.32382 4.38174 8.27939 4.27213 8.27856Z" fill="#D5A929"/>
<path d="M25.3114 12.0184C25.4211 12.0175 25.5259 11.9731 25.6031 11.8948C25.6804 11.8164 25.7237 11.7105 25.7237 11.6001V8.69697C25.7287 8.63921 25.7216 8.58102 25.7031 8.52614C25.6846 8.47125 25.6549 8.42086 25.616 8.37813C25.5771 8.33541 25.5298 8.30129 25.4771 8.27795C25.4244 8.25462 25.3675 8.24255 25.3099 8.24255C25.2524 8.24255 25.1954 8.25462 25.1427 8.27795C25.09 8.30129 25.0427 8.33541 25.0038 8.37813C24.9649 8.42086 24.9352 8.47125 24.9167 8.52614C24.8981 8.58102 24.8911 8.63921 24.8961 8.69697V11.6001C24.8961 11.711 24.9399 11.8174 25.0178 11.8959C25.0956 11.9743 25.2013 12.0184 25.3114 12.0184Z" fill="#D5A929"/>
<path d="M17.0232 2.21641V0.415199C17.0232 0.360413 17.0124 0.306168 16.9915 0.255591C16.9706 0.205014 16.94 0.159098 16.9014 0.120504C16.8628 0.0819096 16.817 0.0514058 16.7666 0.0307254C16.7163 0.0100451 16.6623 -0.0004002 16.6079 1.17257e-05H12.9567C12.8474 1.17257e-05 12.7425 0.0437663 12.6652 0.121628C12.5879 0.19949 12.5445 0.305086 12.5445 0.415199V2.20391C10.7371 2.72302 9.16348 3.85569 8.09054 5.40987L1.33059 6.0342C1.22783 6.04358 1.13231 6.09143 1.06287 6.1683C0.993435 6.24517 0.955149 6.34547 0.95557 6.44939V13.8384C0.955853 13.9421 0.994403 14.042 1.0637 14.1187C1.133 14.1954 1.2281 14.2435 1.33059 14.2536L8.09054 14.8779C8.84474 15.9606 9.84675 16.8443 11.0118 17.4545C12.1769 18.0646 13.4707 18.3831 14.7838 18.3831C16.097 18.3831 17.3908 18.0646 18.5559 17.4545C19.7209 16.8443 20.7229 15.9606 21.4771 14.8779L28.234 14.2536C28.337 14.2442 28.433 14.1965 28.5029 14.1197C28.5728 14.0429 28.6117 13.9426 28.6121 13.8384V6.44627C28.6117 6.34206 28.5728 6.24174 28.5029 6.16495C28.433 6.08815 28.337 6.04041 28.234 6.03108L21.4771 5.40675C20.4009 3.85913 18.8279 2.73242 17.0232 2.21641ZM13.372 0.845991H16.1957V2.0291C15.2617 1.86264 14.306 1.86264 13.372 2.0291V0.845991ZM1.78318 13.47V6.8271L7.55124 6.29643C6.92652 7.48296 6.59991 8.80553 6.59991 10.1486C6.59991 11.4916 6.92652 12.8142 7.55124 14.0007L1.78318 13.47ZM14.7823 17.5594C13.327 17.5594 11.9044 17.1248 10.6944 16.3104C9.48433 15.4961 8.54122 14.3387 7.9843 12.9846C7.42738 11.6304 7.28163 10.1404 7.56554 8.70279C7.84946 7.26523 8.55023 5.94474 9.57929 4.90832C10.6083 3.87189 11.9194 3.16607 13.3468 2.88013C14.7741 2.59418 16.2536 2.74092 17.5982 3.30183C18.9427 3.86274 20.0918 4.81262 20.9004 6.03133C21.7089 7.25003 22.1404 8.68284 22.1404 10.1486C22.1409 11.1227 21.9505 12.0873 21.5803 12.9872C21.21 13.8871 20.6673 14.7047 19.9829 15.3931C19.2986 16.0814 18.4862 16.6271 17.5922 16.9988C16.6982 17.3706 15.7402 17.561 14.773 17.5594H14.7823ZM27.7908 6.8271V13.47L22.0195 14.0007C22.6463 12.8148 22.9742 11.492 22.9742 10.1486C22.9742 8.80513 22.6463 7.4823 22.0195 6.29643L27.7908 6.8271Z" fill="#D5A929"/>
<path d="M14.7732 3.57117C13.4816 3.57117 12.219 3.95693 11.145 4.67966C10.0711 5.40239 9.23407 6.42963 8.73978 7.63148C8.2455 8.83333 8.11618 10.1558 8.36816 11.4317C8.62015 12.7076 9.24211 13.8795 10.1554 14.7994C11.0687 15.7193 12.2323 16.3457 13.4992 16.5995C14.766 16.8533 16.0791 16.723 17.2724 16.2252C18.4657 15.7274 19.4856 14.8843 20.2032 13.8027C20.9208 12.7211 21.3038 11.4494 21.3038 10.1485C21.3038 8.40409 20.6157 6.73112 19.391 5.49763C18.1663 4.26414 16.5052 3.57117 14.7732 3.57117ZM14.7732 15.8924C13.6453 15.8924 12.5427 15.5555 11.6048 14.9244C10.667 14.2932 9.936 13.3961 9.50436 12.3466C9.07271 11.297 8.95975 10.1421 9.17981 9.02794C9.39986 7.91374 9.94301 6.89029 10.7406 6.087C11.5382 5.2837 12.5544 4.73665 13.6606 4.51502C14.7669 4.29339 15.9135 4.40714 16.9556 4.84188C17.9977 5.27662 18.8885 6.01283 19.5151 6.9574C20.1418 7.90197 20.4762 9.01248 20.4762 10.1485C20.4754 11.6716 19.8743 13.1321 18.8049 14.2091C17.7356 15.2861 16.2855 15.8916 14.7732 15.8924Z" fill="#D5A929"/>
<path d="M15.1978 10.1485C15.1978 10.0836 15.1826 10.0195 15.1535 9.96148C15.1244 9.90347 15.0823 9.85312 15.0304 9.81452L11.903 7.4764C11.8594 7.44381 11.8099 7.42018 11.7573 7.40685C11.7047 7.39353 11.65 7.39076 11.5963 7.39874C11.5426 7.40671 11.4911 7.42525 11.4445 7.4533C11.3979 7.48136 11.3573 7.51839 11.3249 7.56225C11.2926 7.60611 11.2691 7.65596 11.2559 7.70896C11.2426 7.76196 11.2399 7.81706 11.2478 7.87112C11.2558 7.92518 11.2742 7.97715 11.302 8.02404C11.3299 8.07094 11.3666 8.11185 11.4102 8.14444L14.2369 10.2609L13.1056 12.1932C13.0782 12.2404 13.0601 12.2925 13.0527 12.3467C13.0452 12.4008 13.0484 12.4559 13.062 12.5088C13.0757 12.5617 13.0996 12.6114 13.1323 12.655C13.1651 12.6986 13.206 12.7353 13.2528 12.7629C13.2996 12.7906 13.3514 12.8087 13.4051 12.8163C13.4589 12.8238 13.5136 12.8206 13.5662 12.8068C13.6187 12.793 13.668 12.769 13.7113 12.736C13.7546 12.703 13.791 12.6618 13.8184 12.6147L15.1388 10.3608C15.1775 10.2969 15.198 10.2234 15.1978 10.1485Z" fill="#D5A929"/>
<path d="M19.4472 9.68955H18.9326C18.8752 9.68455 18.8175 9.69159 18.763 9.71026C18.7085 9.72893 18.6585 9.75882 18.6161 9.798C18.5736 9.83719 18.5397 9.88482 18.5166 9.93789C18.4934 9.99096 18.4814 10.0483 18.4814 10.1063C18.4814 10.1643 18.4934 10.2216 18.5166 10.2747C18.5397 10.3277 18.5736 10.3754 18.6161 10.4146C18.6585 10.4538 18.7085 10.4836 18.763 10.5023C18.8175 10.521 18.8752 10.528 18.9326 10.523H19.4472C19.5045 10.528 19.5622 10.521 19.6167 10.5023C19.6712 10.4836 19.7213 10.4538 19.7637 10.4146C19.8061 10.3754 19.84 10.3277 19.8632 10.2747C19.8864 10.2216 19.8983 10.1643 19.8983 10.1063C19.8983 10.0483 19.8864 9.99096 19.8632 9.93789C19.84 9.88482 19.8061 9.83719 19.7637 9.798C19.7213 9.75882 19.6712 9.72893 19.6167 9.71026C19.5622 9.69159 19.5045 9.68455 19.4472 9.68955Z" fill="#D5A929"/>
<path d="M14.8258 13.9102C14.7156 13.9102 14.61 13.9542 14.5321 14.0327C14.4542 14.1111 14.4105 14.2175 14.4105 14.3285V14.8467C14.4055 14.9044 14.4125 14.9626 14.4311 15.0175C14.4496 15.0724 14.4793 15.1228 14.5182 15.1655C14.5571 15.2082 14.6043 15.2423 14.657 15.2657C14.7097 15.289 14.7667 15.3011 14.8243 15.3011C14.8818 15.3011 14.9387 15.289 14.9914 15.2657C15.0441 15.2423 15.0914 15.2082 15.1303 15.1655C15.1692 15.1228 15.1989 15.0724 15.2174 15.0175C15.236 14.9626 15.243 14.9044 15.238 14.8467V14.3285C15.238 14.2181 15.1947 14.1121 15.1175 14.0338C15.0403 13.9554 14.9354 13.911 14.8258 13.9102Z" fill="#D5A929"/>
<path d="M10.6353 9.78015H10.1239C10.0203 9.78919 9.92391 9.837 9.85365 9.91415C9.7834 9.99131 9.74438 10.0922 9.74438 10.1969C9.74438 10.3016 9.7834 10.4025 9.85365 10.4796C9.92391 10.5568 10.0203 10.6046 10.1239 10.6136H10.6415C10.745 10.6046 10.8415 10.5568 10.9118 10.4796C10.982 10.4025 11.0209 10.3016 11.0209 10.1969C11.0209 10.0922 10.982 9.99131 10.9118 9.91415C10.8415 9.837 10.745 9.78919 10.6415 9.78015H10.6353Z" fill="#D5A929"/>
<path d="M14.7422 6.38693C14.7966 6.38693 14.8505 6.3761 14.9007 6.35504C14.9509 6.33398 14.9965 6.30312 15.0348 6.26423C15.0731 6.22535 15.1034 6.17921 15.1239 6.12848C15.1445 6.07775 15.1548 6.02341 15.1544 5.96862V5.45044C15.1455 5.34614 15.098 5.24901 15.0214 5.17825C14.9448 5.10749 14.8446 5.06824 14.7407 5.06824C14.6367 5.06824 14.5365 5.10749 14.4599 5.17825C14.3833 5.24901 14.3359 5.34614 14.3269 5.45044V5.96862C14.3269 6.07956 14.3706 6.18598 14.4485 6.26442C14.5264 6.34287 14.632 6.38693 14.7422 6.38693Z" fill="#D5A929"/>
</svg>
