<svg width="32" height="27" viewBox="0 0 32 27" fill="none" xmlns="http://www.w3.org/2000/svg">
<path d="M31.8841 4.49577C31.837 4.41656 31.7679 4.35303 31.6852 4.31307C31.6026 4.27311 31.5101 4.25848 31.4192 4.271C28.4251 4.6456 26.6833 3.42503 24.9971 2.24504C24.3158 1.73407 23.5896 1.28687 22.8275 0.908983C19.1825 -0.757985 16.7805 0.284649 15.9746 0.771629C15.1719 0.294014 12.7698 -0.757985 9.12479 0.908983C8.36277 1.28701 7.63656 1.7342 6.95517 2.24504C5.27216 3.42503 3.52717 4.64248 0.533087 4.271C0.442359 4.25969 0.350356 4.27486 0.267938 4.31471C0.18552 4.35455 0.116154 4.4174 0.0681674 4.49577C0.0210434 4.57508 -0.00253106 4.66632 0.000215317 4.7587C0.00296169 4.85109 0.0319292 4.94075 0.0836799 5.01708C0.145669 5.10761 1.48154 7.01495 4.42293 7.20225C3.98111 7.45307 3.50323 7.63317 3.00645 7.73606C2.90743 7.75715 2.81769 7.8096 2.75038 7.88574C2.68308 7.96188 2.64177 8.0577 2.63241 8.15921C2.62306 8.26072 2.64615 8.36257 2.6984 8.44988C2.75065 8.53719 2.82928 8.60537 2.92276 8.64445C3.7052 8.94758 4.52285 9.149 5.35587 9.24383C5.24429 11.0638 5.15133 17.5225 8.94197 22.258C9.00648 22.3375 9.09436 22.3942 9.19297 22.42C9.29159 22.4458 9.39576 22.4394 9.49051 22.4016C9.58765 22.3653 9.67046 22.2982 9.72637 22.2104C9.78229 22.1225 9.80827 22.0187 9.80046 21.9146C9.73868 20.836 9.8507 19.7544 10.1321 18.7118C10.7768 20.3507 12.3017 23.2851 15.6894 26.1539C15.7764 26.2269 15.8861 26.2667 15.9994 26.2662C16.1127 26.2673 16.2227 26.2274 16.3093 26.1539C19.6939 23.2851 21.2251 20.3507 21.8667 18.7118C22.1465 19.7547 22.2594 20.8359 22.2014 21.9146C22.1916 22.0172 22.215 22.1202 22.268 22.2082C22.321 22.2963 22.4009 22.3648 22.4957 22.4034C22.5905 22.442 22.6952 22.4487 22.7941 22.4225C22.893 22.3963 22.9809 22.3386 23.0445 22.258C26.8383 17.5225 26.7421 11.0638 26.6306 9.24383C27.4646 9.14923 28.2833 8.9478 29.0668 8.64445C29.1586 8.60387 29.2353 8.53524 29.2861 8.44826C29.337 8.36129 29.3594 8.26037 29.3502 8.15986C29.3409 8.05934 29.3004 7.96432 29.2345 7.88825C29.1687 7.81219 29.0807 7.75894 28.9831 7.73606C28.4854 7.63309 28.0065 7.45301 27.5635 7.20225C30.4987 7.02119 31.8346 5.11385 31.9028 5.01708C31.9502 4.93773 31.9737 4.84619 31.9704 4.75364C31.9671 4.66108 31.9371 4.57149 31.8841 4.49577ZM23.1096 20.4756C23.039 19.292 22.7355 18.1343 22.2169 17.0698C22.1721 16.9818 22.1013 16.91 22.0143 16.8643C21.9272 16.8186 21.8282 16.8012 21.7309 16.8146C21.6336 16.8279 21.5428 16.8714 21.4711 16.9389C21.3994 17.0064 21.3503 17.0947 21.3305 17.1916C21.3305 17.2322 20.4193 21.2497 15.9746 25.1487C11.5331 21.2404 10.6312 17.2322 10.6219 17.1916C10.6021 17.0947 10.5529 17.0064 10.4812 16.9389C10.4095 16.8714 10.3187 16.8279 10.2214 16.8146C10.1241 16.8012 10.0252 16.8186 9.9381 16.8643C9.85104 16.91 9.78019 16.9818 9.73538 17.0698C9.21536 18.1338 8.9119 19.2917 8.84277 20.4756C6.16793 16.2239 6.21444 10.917 6.29812 9.32497C6.90392 9.36528 7.51167 9.36528 8.11747 9.32497C8.31583 12.6495 10.3646 15.2718 12.8566 15.2718C13.2509 14.8326 13.7322 14.4815 14.2696 14.2413C14.8069 14.001 15.3883 13.8769 15.9762 13.8769C16.5641 13.8769 17.1454 14.001 17.6828 14.2413C18.2201 14.4815 18.7015 14.8326 19.0958 15.2718C21.5754 15.2718 23.6334 12.6495 23.8348 9.32497C24.1882 9.34995 24.5291 9.36243 24.8546 9.36243C25.18 9.36243 25.397 9.36245 25.6512 9.3406C25.7348 10.9202 25.7845 16.2239 23.1096 20.4756ZM9.06592 9.20947C11.5358 8.84452 13.895 7.93417 15.9746 6.54358C18.0562 7.93331 20.416 8.84454 22.8865 9.2126C22.7315 11.7443 21.2469 14.3009 19.0958 14.3009C18.5572 14.3145 18.0244 14.1856 17.5507 13.9271C17.077 13.6685 16.6789 13.2894 16.3961 12.8275C16.3562 12.7507 16.2961 12.6864 16.2222 12.6418C16.1484 12.5972 16.0638 12.5739 15.9777 12.5746C15.8919 12.575 15.8077 12.5986 15.734 12.6431C15.6604 12.6876 15.6 12.7513 15.5593 12.8275C15.2751 13.2881 14.8767 13.6662 14.4033 13.9245C13.93 14.1829 13.398 14.3126 12.8597 14.3009C10.7024 14.3009 9.2178 11.7443 9.06592 9.20947ZM26.3578 6.21581C26.2731 6.20637 26.1875 6.22024 26.11 6.25597C26.0324 6.29171 25.9659 6.34795 25.9177 6.41871C25.8694 6.48879 25.8406 6.57055 25.8341 6.65557C25.8275 6.7406 25.8435 6.82585 25.8805 6.90258C26.2062 7.45274 26.6921 7.88868 27.2722 8.15125C25.1924 8.5633 21.005 8.77558 16.2381 5.57587C16.16 5.52391 16.0682 5.49673 15.9746 5.49783C15.8812 5.49765 15.7896 5.52476 15.7112 5.57587C10.9628 8.75685 6.76925 8.55394 4.68331 8.14812C5.26234 7.88639 5.74643 7.45009 6.06876 6.89945C6.10637 6.82287 6.12288 6.73752 6.11659 6.65232C6.1103 6.56711 6.08141 6.48517 6.03297 6.41503C5.98454 6.34489 5.91834 6.28911 5.84122 6.25352C5.7641 6.21793 5.67891 6.20383 5.59454 6.21269C4.23679 6.40011 2.85831 6.07305 1.72641 5.29492C4.31137 5.25746 5.99124 4.08371 7.49758 3.02858C8.13277 2.55235 8.80911 2.13446 9.51843 1.77992C13.4052 0.00369348 15.5903 1.64881 15.6802 1.72061C15.7647 1.78592 15.8682 1.82132 15.9746 1.82132C16.0811 1.82132 16.1846 1.78592 16.2691 1.72061C16.359 1.64881 18.5471 0.000571891 22.4339 1.77992C23.1432 2.13446 23.8195 2.55235 24.4547 3.02858C25.9611 4.08371 27.6379 5.25746 30.226 5.29492C29.0943 6.07359 27.716 6.40173 26.3578 6.21581Z" fill="#D5A929"/>
</svg>
