<svg width="162" height="14" viewBox="0 0 162 14" fill="none" xmlns="http://www.w3.org/2000/svg">
<g clip-path="url(#clip0_85_365)">
<path d="M73.7659 13.8453V0.195312H74.0639C78.0317 0.195312 81.9994 0.196158 85.9669 0.197844C86.7291 0.197844 87.4913 0.240843 88.2199 0.488721C89.51 0.927311 90.1055 1.87025 90.2738 3.11571C90.4315 4.27466 90.0693 5.29096 89.3275 6.19698C89.2902 6.24149 89.256 6.28854 89.244 6.30422C89.6298 6.66592 90.0325 6.99473 90.3715 7.37262C91.0208 8.09146 91.2741 8.96055 91.2599 9.90198C91.2484 10.678 91.0859 11.4196 90.6507 12.0949C90.0225 13.0667 89.0736 13.5554 87.9403 13.736C87.4477 13.8102 86.9496 13.8461 86.451 13.8432C82.3346 13.8513 78.2182 13.8528 74.1018 13.8478L73.7659 13.8453ZM78.1979 10.6583H84.5586C84.9528 10.6583 85.3471 10.6739 85.7403 10.6502C86.1014 10.6289 86.4873 10.5702 86.6713 10.2288C86.8952 9.81345 86.8658 9.36475 86.6713 8.93678C86.5104 8.58267 86.1614 8.56496 85.8302 8.52196C85.743 8.51196 85.6552 8.50757 85.5674 8.50881H78.1979V10.6583ZM78.1979 5.23228C78.2778 5.23734 78.3451 5.24493 78.4129 5.24493C80.4711 5.24493 82.5291 5.24493 84.587 5.24493C84.7526 5.24493 84.9181 5.22115 85.0832 5.20496C85.5037 5.16247 85.7587 4.92825 85.8234 4.5362C85.8616 4.30423 85.8634 4.06804 85.8286 3.83557C85.7708 3.45465 85.5316 3.21587 85.119 3.16933C84.9114 3.14092 84.7024 3.12403 84.4929 3.11875C82.4872 3.1147 80.4818 3.1147 78.4765 3.11875C78.3845 3.11875 78.2925 3.12735 78.1979 3.1319V5.23228Z" fill="white"/>
<path d="M144.023 4.69745C142.596 4.69745 141.184 4.69745 139.776 4.69087C139.712 4.69087 139.602 4.60639 139.592 4.54822C139.513 4.10558 139.224 3.82077 138.808 3.71403C138.237 3.56682 137.651 3.44289 137.062 3.39786C135.612 3.27871 134.154 3.28836 132.706 3.4267C132.437 3.4566 132.172 3.51635 131.918 3.60476C131.55 3.72921 131.36 4.01604 131.376 4.35699C131.379 4.51992 131.443 4.67644 131.555 4.79871C131.667 4.92098 131.82 5.00107 131.987 5.02474C132.667 5.13755 133.354 5.23215 134.041 5.28224C135.132 5.36166 136.233 5.34749 137.318 5.46486C138.878 5.6328 140.462 5.6672 141.973 6.15081C142.814 6.41893 143.561 6.8211 144.095 7.52072C144.41 7.93098 144.547 8.41308 144.61 8.91035C144.733 9.9059 144.609 10.861 144.048 11.7321C143.657 12.3391 143.11 12.7732 142.446 13.0722C141.206 13.6286 139.876 13.8694 138.527 13.9321C136.954 14.003 135.373 14.0186 133.8 13.9827C132.239 13.9478 130.699 13.7374 129.233 13.1521C127.818 12.586 126.952 11.6031 126.704 10.1386C126.648 9.80726 126.627 9.47085 126.588 9.11674H131.05C131.076 9.82496 131.538 10.1563 132.176 10.345C133.022 10.5949 133.895 10.6683 134.769 10.6925C136.152 10.7315 137.539 10.7709 138.911 10.5509C139.229 10.4987 139.536 10.4012 139.824 10.2615C140.323 10.0192 140.406 9.14861 139.78 8.93716C139.302 8.7793 138.805 8.68136 138.301 8.64578C136.634 8.52032 134.962 8.45709 133.295 8.32506C131.854 8.21073 130.418 8.02608 129.077 7.4595C127.995 7.00422 127.267 6.24896 127.047 5.09253C126.889 4.26493 126.872 3.45402 127.232 2.66435C127.626 1.80083 128.345 1.2727 129.211 0.912009C130.49 0.379832 131.847 0.184056 133.224 0.0859166C134.667 -0.0152578 136.111 -0.0400455 137.554 0.0859166C138.997 0.211879 140.423 0.422325 141.742 1.05112C143.266 1.77705 144.002 2.97647 144.042 4.59576C144.039 4.63011 144.032 4.66412 144.023 4.69745Z" fill="white"/>
<path d="M92.1699 13.827V0.215531C92.2488 0.209966 92.3155 0.200858 92.3802 0.200858C97.1814 0.200858 101.982 0.199173 106.781 0.195801C107.016 0.195801 107.1 0.246388 107.096 0.487183C107.082 1.40585 107.082 2.32451 107.096 3.24317C107.099 3.47233 107.021 3.52292 106.795 3.52241C103.51 3.51567 100.225 3.51415 96.941 3.51786C96.5867 3.51786 96.5867 3.51786 96.5867 3.8659C96.5867 4.42894 96.5867 4.99197 96.5867 5.59598H96.9068C100.192 5.59598 103.476 5.59396 106.761 5.58991C107.024 5.58991 107.104 5.65112 107.098 5.91063C107.079 6.66877 107.079 7.42757 107.098 8.18706C107.104 8.45163 107.01 8.51081 106.753 8.51031C103.459 8.50323 100.166 8.51031 96.8705 8.50019C96.6392 8.50019 96.5699 8.55078 96.5788 8.77741C96.5982 9.25748 96.5993 9.73857 96.5788 10.2186C96.5683 10.4559 96.6408 10.5156 96.8837 10.5151C100.125 10.5077 103.367 10.506 106.609 10.51C107.183 10.51 107.087 10.5009 107.09 10.9704C107.094 11.847 107.09 12.7237 107.093 13.6009C107.093 13.7557 107.078 13.8508 106.872 13.8508C102.01 13.8457 97.1491 13.8441 92.2877 13.8457C92.248 13.8421 92.2087 13.8358 92.1699 13.827Z" fill="white"/>
<path d="M62.2965 5.59649H72.4532C72.7996 5.59649 72.8001 5.59649 72.8006 5.92379V8.09904C72.8006 8.50373 72.8006 8.50373 72.3906 8.50373H62.2965C62.2965 8.61755 62.2965 8.70608 62.2965 8.79613C62.3088 9.35697 62.3212 9.91815 62.3338 10.4797C62.9121 10.4893 63.4856 10.506 64.0617 10.5065C66.8471 10.5095 69.6332 10.5095 72.42 10.5065C72.8006 10.5065 72.8006 10.5065 72.8012 10.8677C72.8012 11.7782 72.797 12.6888 72.8043 13.5994C72.8043 13.7855 72.7449 13.8468 72.5478 13.8462C67.6944 13.8419 62.8406 13.8405 57.9865 13.8422C57.9602 13.8422 57.9339 13.8382 57.8813 13.8341V0.200858H58.1621C62.9282 0.200858 67.6944 0.199173 72.4605 0.195801C72.7207 0.195801 72.8096 0.252456 72.8048 0.516015C72.788 1.41798 72.7917 2.32046 72.8048 3.22243C72.8048 3.45159 72.7423 3.52595 72.4942 3.52595C69.2178 3.51786 65.9411 3.516 62.664 3.52039C62.296 3.52039 62.296 3.52039 62.296 3.8745C62.2965 4.43652 62.2965 4.99956 62.2965 5.59649Z" fill="white"/>
<path d="M18.7499 13.8321H14.3137V8.86085H4.43147V13.8326H0V0.215507H4.4115V5.18266H14.3116V0.210449H18.7499V13.8321Z" fill="white"/>
<path d="M40.3837 7.01423C40.3837 4.84843 40.3837 2.68262 40.3837 0.516815C40.3837 0.18041 40.3837 0.179402 40.7311 0.179402C44.2958 0.179402 47.8599 0.171306 51.4245 0.183447C52.642 0.188 53.8084 0.408562 54.8162 1.13398C55.8854 1.90442 56.5725 2.90453 56.7948 4.18085C57.0051 5.40303 56.9467 6.60903 56.3611 7.73308C55.6357 9.12675 54.4687 10.0044 52.8706 10.3075C52.4151 10.3872 51.9527 10.4257 51.4897 10.4223C49.3964 10.4339 47.3037 10.4273 45.2104 10.4273C44.8425 10.4273 44.8425 10.4273 44.8425 10.7688C44.8425 11.7042 44.8377 12.6405 44.8467 13.5749C44.8467 13.7828 44.7815 13.8511 44.5618 13.8496C43.2651 13.8408 41.9684 13.8408 40.6717 13.8496C40.4389 13.8496 40.3747 13.7828 40.3752 13.5617C40.3868 11.3799 40.3837 9.19707 40.3837 7.01423ZM48.0622 6.82554V6.80885C49.061 6.80885 50.0598 6.83667 51.0586 6.79671C51.5344 6.77799 52.0453 6.66923 52.2803 6.18966C52.51 5.71971 52.5121 5.2103 52.3823 4.70645C52.2771 4.29416 52.0064 4.02554 51.5754 3.93094C51.33 3.86984 51.0785 3.83423 50.8252 3.82471C48.9249 3.81257 47.024 3.81459 45.1237 3.80498C44.9061 3.80498 44.8393 3.87226 44.8419 4.0822C44.8535 4.90829 44.8551 5.73437 44.8419 6.56097C44.8383 6.77698 44.9066 6.83263 45.1221 6.8306C46.1004 6.81998 47.0813 6.82554 48.0622 6.82554Z" fill="white"/>
<path d="M39.3245 0.195487C39.151 0.558197 38.9965 0.8855 38.8383 1.21128C38.1843 2.56027 37.53 3.90926 36.8754 5.25825C35.537 8.03549 34.2014 10.8139 32.8686 13.5935C32.7809 13.7771 32.6862 13.8505 32.4665 13.8495C30.5309 13.8394 28.5954 13.8394 26.6598 13.8495C26.4617 13.8495 26.3555 13.8065 26.2656 13.6183C25.0113 10.9974 23.7423 8.38302 22.4849 5.76463C21.6295 3.98598 20.7782 2.20531 19.9312 0.422623C19.9028 0.362424 19.8786 0.299696 19.8418 0.213698C19.9206 0.207121 19.9843 0.1965 20.0479 0.1965C21.5276 0.1965 23.008 0.199535 24.4877 0.19043C24.6728 0.19043 24.7469 0.25923 24.8126 0.406944C25.1459 1.15715 25.4913 1.9018 25.8235 2.652C25.8903 2.80376 25.9686 2.86497 26.151 2.86447C28.4289 2.85738 30.7069 2.85738 32.9848 2.86447C33.1478 2.86447 33.2287 2.82046 33.2944 2.67224C33.6358 1.90736 33.9862 1.14669 34.3458 0.390247C34.3857 0.306272 34.5109 0.205607 34.5971 0.204596C36.1547 0.192455 37.7133 0.195487 39.3245 0.195487ZM29.5469 10.8476C30.3096 9.19444 31.044 7.60347 31.7852 5.99632H27.3359C28.075 7.61106 28.7973 9.19899 29.5469 10.8476Z" fill="white"/>
<path d="M127.323 13.8454H125.518C124.563 13.8454 123.608 13.8424 122.654 13.849C122.501 13.849 122.425 13.8065 122.364 13.6684C122.028 12.9096 121.675 12.1594 121.339 11.4016C121.272 11.2498 121.197 11.1845 121.014 11.185C118.728 11.1918 116.442 11.1918 114.156 11.185C113.99 11.185 113.917 11.2356 113.853 11.3839C113.515 12.1503 113.165 12.9116 112.809 13.6704C112.775 13.7437 112.672 13.8368 112.602 13.8373C111.042 13.8459 109.483 13.8434 107.923 13.8419C107.907 13.8419 107.892 13.8302 107.856 13.8166C107.89 13.7407 107.922 13.6648 107.958 13.591C109.224 10.9746 110.49 8.35807 111.757 5.74136C112.615 3.96407 113.467 2.18492 114.314 0.40391C114.391 0.242031 114.482 0.189927 114.665 0.190433C116.618 0.197178 118.572 0.197178 120.525 0.190433C120.725 0.190433 120.812 0.255689 120.893 0.42212C121.67 2.05052 122.457 3.67437 123.238 5.30075C124.566 8.06618 125.892 10.8316 127.217 13.597C127.253 13.6719 127.283 13.7478 127.323 13.8454ZM117.598 3.17154L115.378 8.10733H119.81L117.598 3.17154Z" fill="white"/>
<path d="M155.566 13.8334H151.116V3.81056H144.684V0.215332H162V3.79387H155.566V13.8334Z" fill="white"/>
</g>
<defs>
<clipPath id="clip0_85_365">
<rect width="162" height="14" fill="white"/>
</clipPath>
</defs>
</svg>
