<svg width="24" height="23" viewBox="0 0 24 23" fill="none" xmlns="http://www.w3.org/2000/svg">
<path d="M20.9887 22.0552C21.2472 22.2114 21.5427 22.2945 21.8442 22.2955H21.9465C22.1945 22.296 22.4395 22.2407 22.6637 22.1339C22.8879 22.0271 23.0857 21.8714 23.2427 21.678C23.3997 21.4846 23.512 21.2584 23.5714 21.0159C23.6308 20.7734 23.6358 20.5205 23.5861 20.2758L22.6284 15.5153C22.8759 15.3931 23.0844 15.2034 23.2302 14.9677C23.3759 14.7321 23.4531 14.4599 23.4528 14.1823V12.9336C23.4442 10.3437 22.5611 7.83372 20.9484 5.81634C19.3357 3.79896 17.0895 2.39423 14.5791 1.83302C14.4296 1.30501 14.1133 0.84043 13.6782 0.509671C13.2431 0.178911 12.7128 0 12.1677 0C11.6225 0 11.0923 0.178911 10.6571 0.509671C10.222 0.84043 9.90574 1.30501 9.75627 1.83302C7.24665 2.39536 5.00149 3.80051 3.38951 5.81771C1.77753 7.83492 0.894607 10.3443 0.885645 12.9336V14.1823C0.883329 14.4608 0.959587 14.7342 1.10554 14.9708C1.2515 15.2073 1.46113 15.3972 1.71008 15.5184C1.32264 17.4694 1.09019 18.6401 0.944517 19.33C0.718256 20.4288 0.718262 20.4288 0.718262 20.6129C0.719083 21.0595 0.895798 21.4874 1.20959 21.8029C1.52338 22.1183 1.94858 22.2955 2.39194 22.2955C2.68874 22.2952 2.97995 22.2143 3.23499 22.0614C9.17046 18.5776 15.1431 18.5745 20.9887 22.0552ZM22.4517 14.1823C22.4517 14.3017 22.4082 14.4171 22.3293 14.5063C22.2504 14.5955 22.1418 14.6524 22.024 14.6662C21.9062 14.6662 21.838 14.6662 21.5404 14.5444C21.2429 14.4227 20.7377 14.2322 19.78 13.9513C20.3162 10.377 19.3987 6.54984 17.4274 4.15865L17.2074 3.90581C18.7967 4.80758 20.1198 6.11828 21.0412 7.70393C21.9627 9.28958 22.4494 11.0933 22.4517 12.9305V14.1823ZM18.8098 13.6797C14.4562 12.531 9.88224 12.531 5.52864 13.6797C5.06992 10.4176 5.90675 6.94943 7.67965 4.80173C8.20799 4.10651 8.88827 3.54319 9.66766 3.1555C10.4471 2.76781 11.3046 2.56615 12.1739 2.56615C13.0431 2.56615 13.9007 2.76781 14.6801 3.1555C15.4595 3.54319 16.1397 4.10651 16.6681 4.80173C18.4317 6.94943 19.2685 10.4176 18.8098 13.6797ZM6.91099 4.15865C4.93973 6.54984 4.02226 10.377 4.55847 13.9513C3.58523 14.2416 3.08933 14.432 2.78558 14.5475C2.48183 14.663 2.42913 14.6818 2.30825 14.6662C2.19101 14.6517 2.08312 14.5945 2.00489 14.5053C1.92666 14.4162 1.88354 14.3013 1.88366 14.1823V12.9336C1.88596 11.096 2.37305 9.29199 3.29507 7.70626C4.21709 6.12052 5.5409 4.81005 7.13104 3.90894L6.91099 4.15865ZM1.92082 19.5266C2.06339 18.8274 2.30206 17.6536 2.70809 15.6308C2.85377 15.5933 3.07077 15.5153 3.36522 15.4123C9.21103 13.2375 15.6457 13.2975 21.4505 15.5808C21.5093 15.6022 21.5694 15.6199 21.6303 15.6339L22.6066 20.4756C22.6268 20.5743 22.6247 20.6762 22.6006 20.774C22.5765 20.8718 22.5309 20.9629 22.4672 21.0406C22.4046 21.119 22.3253 21.1822 22.2352 21.2255C22.145 21.2687 22.0464 21.2909 21.9465 21.2903H21.8442C21.7225 21.2901 21.6033 21.2555 21.5002 21.1905C18.4007 19.3518 15.3012 18.4309 12.1522 18.4309C9.0031 18.4309 5.86647 19.3674 2.72671 21.1936C2.62586 21.2557 2.51016 21.2891 2.39194 21.2903C2.30254 21.2899 2.21411 21.2718 2.13171 21.2368C2.04931 21.2019 1.9746 21.1509 1.91181 21.0868C1.84903 21.0227 1.7994 20.9467 1.76584 20.8633C1.73229 20.7798 1.71546 20.6905 1.71628 20.6005C1.76543 20.2391 1.83369 19.8806 1.92082 19.5266ZM10.9465 1.63636C11.0868 1.44269 11.2705 1.28519 11.4827 1.17668C11.6949 1.06818 11.9297 1.01175 12.1677 1.01202C12.4092 1.00639 12.6484 1.06036 12.8645 1.16918C13.0806 1.27799 13.267 1.43837 13.4075 1.63636C12.5948 1.54479 11.7746 1.54479 10.962 1.63636H10.9465Z" fill="#D5A929"/>
</svg>
