<svg width="25" height="18" viewBox="0 0 25 18" fill="none" xmlns="http://www.w3.org/2000/svg">
<path d="M16.987 15H14.9241C14.6605 15.0099 14.4144 15.0668 14.2349 15.1595C14.0553 15.2522 13.9556 15.3738 13.9556 15.5C13.9556 15.6262 14.0553 15.7478 14.2349 15.8405C14.4144 15.9332 14.6605 15.9901 14.9241 16H16.987C17.2506 15.9901 17.4967 15.9332 17.6762 15.8405C17.8558 15.7478 17.9556 15.6262 17.9556 15.5C17.9556 15.3738 17.8558 15.2522 17.6762 15.1595C17.4967 15.0668 17.2506 15.0099 16.987 15Z" fill="#D5A929"/>
<path d="M10.987 15H8.92413C8.66049 15.0099 8.41444 15.0668 8.23489 15.1595C8.05535 15.2522 7.95557 15.3738 7.95557 15.5C7.95557 15.6262 8.05535 15.7478 8.23489 15.8405C8.41444 15.9332 8.66049 15.9901 8.92413 16H10.987C11.2506 15.9901 11.4967 15.9332 11.6762 15.8405C11.8558 15.7478 11.9556 15.6262 11.9556 15.5C11.9556 15.3738 11.8558 15.2522 11.6762 15.1595C11.4967 15.0668 11.2506 15.0099 10.987 15Z" fill="#D5A929"/>
<path d="M12.7268 0C10.1785 0 7.73456 1.01957 5.93264 2.83439C4.13073 4.64922 3.11846 7.11064 3.11846 9.67719V11.4503H2.49857C1.97518 11.4511 1.47344 11.6609 1.10335 12.0336C0.733266 12.4064 0.52499 12.9117 0.52417 13.4388V14.4471C0.524037 15.0628 0.713184 15.6634 1.06559 16.1664C1.418 16.6695 1.91641 17.0503 2.49236 17.2566L3.24241 17.5251L3.26723 17.4502H22.2266L22.2514 17.5251L23.0015 17.2566C23.5774 17.0503 24.0759 16.6695 24.4283 16.1664C24.7807 15.6634 24.9698 15.0628 24.9697 14.4471V13.4388C24.9689 12.9117 24.7606 12.4064 24.3905 12.0336C24.0204 11.6609 23.5187 11.4511 22.9953 11.4503H22.3351V9.67719C22.3351 7.11064 21.3229 4.64922 19.521 2.83439C17.719 1.01957 15.2751 0 12.7268 0ZM23.9375 14.4377C23.9375 14.8416 23.8132 15.2356 23.5817 15.5654C23.3503 15.8952 23.0231 16.1447 22.6451 16.2795L22.3351 16.395V12.4586H22.9861C23.2412 12.4594 23.4855 12.5621 23.6657 12.744C23.8458 12.926 23.9468 13.1725 23.9468 13.4295L23.9375 14.4377ZM1.51916 13.4295C1.51916 13.1725 1.62025 12.926 1.80035 12.744C1.98046 12.5621 2.22484 12.4594 2.47995 12.4586H3.13087V16.395L2.82092 16.2795C2.44292 16.1447 2.11565 15.8952 1.8842 15.5654C1.65275 15.2356 1.52852 14.8416 1.52847 14.4377L1.51916 13.4295ZM4.06381 16.6947H4.1413V9.66782C4.11961 8.51824 4.32569 7.37583 4.74749 6.30741C5.16929 5.23898 5.79833 4.26598 6.59786 3.44527C7.3974 2.62457 8.35134 1.97265 9.40395 1.52761C10.4566 1.08257 11.5867 0.853354 12.7283 0.853354C13.8699 0.853354 15.0001 1.08257 16.0527 1.52761C17.1054 1.97265 18.0593 2.62457 18.8588 3.44527C19.6584 4.26598 20.2874 5.23898 20.7092 6.30741C21.131 7.37583 21.3371 8.51824 21.3154 9.66782V16.6947H4.06381Z" fill="#D5A929"/>
</svg>
