<svg width="23" height="22" viewBox="0 0 23 22" fill="none" xmlns="http://www.w3.org/2000/svg">
<path d="M11.5024 2.12597C12.3242 1.2544 13.2814 0.641693 14.3927 0.294555C18.1769 -0.888767 22.1455 1.61643 22.8685 5.68562C23.3126 8.17704 22.629 10.3239 20.9144 12.1173C18.2232 14.9317 15.5364 17.7508 12.854 20.5745L11.4968 22.0003C11.1461 21.6279 10.8068 21.2666 10.4664 20.9075C7.68284 17.9867 4.89832 15.0675 2.11285 12.1501C1.12301 11.1199 0.438722 9.92688 0.149516 8.49698C-0.618975 4.69784 1.65452 1.04358 5.16976 0.195105C7.52533 -0.373277 9.71427 0.309083 11.5024 2.12597ZM11.5081 18.9349C11.6041 18.8232 11.6744 18.7301 11.7533 18.6474C14.3519 15.921 16.9505 13.1948 19.549 10.4688C20.6568 9.30412 21.0995 7.888 20.8668 6.27188C20.5279 3.92162 18.6384 2.30996 16.6033 2.1945C15.1665 2.11293 13.9461 2.6098 12.9502 3.69926C12.5079 4.18347 12.0759 4.67698 11.6414 5.16863C11.5991 5.22601 11.5617 5.28722 11.5298 5.35152C11.0015 4.75892 10.5279 4.20432 10.0301 3.67542C8.82214 2.39079 7.35976 1.91999 5.68635 2.30885C3.73581 2.76214 2.36262 4.36933 2.1196 6.43725C1.94195 7.95505 2.35409 9.30002 3.37981 10.3854C5.95744 13.1159 8.55816 15.8234 11.1489 18.539C11.2601 18.6578 11.3678 18.7811 11.5081 18.9349Z" fill="#CD9B14"/>
</svg>
