<svg width="20" height="20" viewBox="0 0 20 20" fill="none" xmlns="http://www.w3.org/2000/svg">
<path d="M3.28797 16.6158C3.28797 17.19 3.45705 17.7513 3.77378 18.2287C4.09051 18.7061 4.54066 19.0782 5.06737 19.2979C5.59408 19.5177 6.17365 19.5752 6.7328 19.4631C7.29195 19.3511 7.80555 19.0746 8.20868 18.6686C8.6118 18.2626 8.8864 17.7453 8.99762 17.1822C9.10884 16.619 9.05173 16.0353 8.83357 15.5048C8.6154 14.9743 8.24593 14.5209 7.77191 14.2019C7.29788 13.8829 6.7406 13.7126 6.17049 13.7126C5.93945 13.7131 5.70938 13.7425 5.48552 13.8001C4.65595 12.9258 4.09951 11.8254 3.88532 10.6355C3.67112 9.44557 3.80858 8.21852 4.28062 7.10658C4.75266 5.99464 5.53848 5.04676 6.5406 4.38061C7.54272 3.71447 8.71698 3.35937 9.9177 3.35937C11.1184 3.35937 12.2928 3.71447 13.2949 4.38061C14.297 5.04676 15.0828 5.99464 15.5548 7.10658C16.0269 8.21852 16.1643 9.44557 15.9502 10.6355C15.736 11.8254 15.1795 12.9258 14.3499 13.8001C14.1261 13.7425 13.896 13.7131 13.665 13.7126C13.0949 13.7126 12.5376 13.8829 12.0636 14.2019C11.5895 14.5209 11.2201 14.9743 11.0019 15.5048C10.7837 16.0353 10.7266 16.619 10.8379 17.1822C10.9491 17.7453 11.2236 18.2626 11.6267 18.6686C12.0298 19.0746 12.5435 19.3511 13.1027 19.4631C13.6618 19.5752 14.2414 19.5177 14.7681 19.2979C15.2948 19.0782 15.745 18.7061 16.0617 18.2287C16.3784 17.7513 16.5475 17.19 16.5475 16.6158C16.5475 16.5284 16.5475 16.4379 16.5475 16.3505C17.8927 15.0259 18.8155 13.3276 19.1981 11.4725C19.5807 9.6174 19.4057 7.68956 18.6956 5.93501C17.9855 4.18045 16.7725 2.67878 15.2112 1.62169C13.65 0.564596 11.8114 0 9.93011 0C8.04886 0 6.21031 0.564596 4.64906 1.62169C3.08781 2.67878 1.87469 4.18045 1.16458 5.93501C0.454479 7.68956 0.279593 9.6174 0.662208 11.4725C1.04482 13.3276 1.96763 15.0259 3.31279 16.3505C3.3066 16.4504 3.28797 16.5284 3.28797 16.6158ZM6.17049 14.5836C6.56957 14.5836 6.95966 14.7028 7.29148 14.9261C7.62329 15.1494 7.88192 15.4668 8.03464 15.8381C8.18736 16.2094 8.22728 16.618 8.14943 17.0123C8.07157 17.4065 7.87945 17.7686 7.59726 18.0528C7.31507 18.337 6.95554 18.5305 6.56413 18.6089C6.17273 18.6874 5.76705 18.6471 5.39835 18.4933C5.02965 18.3395 4.71451 18.079 4.4928 17.7448C4.27109 17.4106 4.15274 17.0177 4.15274 16.6158C4.15233 16.3475 4.20462 16.0817 4.30658 15.8338C4.40853 15.5859 4.55815 15.3607 4.74683 15.1713C4.93551 14.9818 5.15953 14.8318 5.40599 14.7299C5.65245 14.628 5.91648 14.5761 6.1829 14.5773L6.17049 14.5836ZM13.665 18.6418C13.2659 18.6418 12.8758 18.5226 12.544 18.2993C12.2122 18.076 11.9536 17.7586 11.8008 17.3872C11.6481 17.0159 11.6081 16.6073 11.686 16.2131C11.7638 15.8189 11.956 15.4568 12.2382 15.1726C12.5204 14.8884 12.8799 14.6948 13.2713 14.6164C13.6627 14.538 14.0684 14.5782 14.4371 14.732C14.8058 14.8858 15.121 15.1463 15.3427 15.4805C15.5644 15.8147 15.6827 16.2076 15.6827 16.6095C15.6803 17.145 15.4684 17.658 15.093 18.0372C14.7177 18.4164 14.2091 18.6314 13.6774 18.6355L13.665 18.6418ZM1.31668 9.53273C1.31597 8.12455 1.65611 6.73742 2.30766 5.49149C2.95921 4.24555 3.90258 3.17839 5.05594 2.3824C6.20931 1.58641 7.53794 1.08563 8.92679 0.92339C10.3156 0.761149 11.7228 0.942343 13.0265 1.45131C14.3301 1.96028 15.4909 2.78165 16.4083 3.84431C17.3257 4.90696 17.9721 6.17887 18.2914 7.54983C18.6107 8.92079 18.5934 10.3495 18.2409 11.7122C17.8884 13.0749 17.2114 14.3305 16.2685 15.3703C16.0322 14.8707 15.6604 14.4487 15.1961 14.1528C16.3077 12.8746 16.9183 11.2319 16.9132 9.53273C16.9133 8.39478 16.6397 7.27374 16.1159 6.2655C15.592 5.25726 14.8334 4.39183 13.9051 3.74321C12.9767 3.09459 11.9062 2.68209 10.785 2.541C9.66389 2.39991 8.52553 2.53442 7.46726 2.93304C6.40899 3.33165 5.46231 3.98254 4.70823 4.82996C3.95416 5.67739 3.41509 6.69614 3.13716 7.79912C2.85924 8.90211 2.85074 10.0565 3.11234 11.1635C3.37394 12.2706 3.8979 13.2973 4.63937 14.1559C4.17585 14.4513 3.80415 14.8721 3.5669 15.3703C2.12963 13.7727 1.33221 11.6948 1.32909 9.53898L1.31668 9.53273Z" fill="#D5A929"/>
</svg>
