<svg width="26" height="22" viewBox="0 0 26 22" fill="none" xmlns="http://www.w3.org/2000/svg">
<path d="M23.6137 17.3346C23.8071 16.9876 23.8857 16.5875 23.8382 16.1925C23.7907 15.7974 23.6195 15.4279 23.3494 15.1375C23.0793 14.847 22.7244 14.6508 22.3361 14.5772C21.9478 14.5035 21.5464 14.5564 21.1899 14.728L20.57 14.1037C20.7128 13.8206 20.781 13.5054 20.7682 13.1883C20.7553 12.8711 20.6618 12.5626 20.4966 12.2922C20.3315 12.0219 20.1002 11.7987 19.8248 11.6442C19.5495 11.4897 19.2394 11.4089 18.9242 11.4097C18.6357 11.4105 18.3513 11.4789 18.0936 11.6095L17.4923 11.0038C17.6236 10.7449 17.6916 10.4581 17.6906 10.1673C17.6861 9.80077 17.575 9.44363 17.3709 9.14015C17.1669 8.83667 16.8789 8.60019 16.5426 8.45996C16.2064 8.31972 15.8367 8.28188 15.4794 8.3512C15.122 8.42052 14.7927 8.59391 14.5323 8.8499L14.5168 8.86864L13.8473 8.19748L14.7772 7.26099C14.8786 7.15807 14.9355 7.01893 14.9355 6.8739C14.9355 6.72888 14.8786 6.58974 14.7772 6.48682L10.4751 2.15397C10.4249 2.10262 10.3651 2.06184 10.2991 2.03401C10.2332 2.00618 10.1623 1.99183 10.0907 1.99183C10.0192 1.99183 9.9484 2.00618 9.88242 2.03401C9.81643 2.06184 9.75659 2.10262 9.70641 2.15397L8.77657 3.09046L8.37983 2.69088C8.56377 2.34516 8.63296 1.94919 8.57718 1.561C8.5214 1.17281 8.3436 0.812824 8.06988 0.533811C7.8311 0.294714 7.53124 0.126945 7.20353 0.0490634C6.87582 -0.0288185 6.5331 -0.0137474 6.21338 0.0926187C5.89366 0.198985 5.60946 0.392478 5.39228 0.651635C5.17511 0.910792 5.03345 1.22547 4.98305 1.56077C4.93265 1.89607 4.97542 2.2389 5.1067 2.55119C5.23798 2.86347 5.45261 3.13301 5.72674 3.32992C6.00088 3.52683 6.32384 3.6434 6.65976 3.6667C6.99568 3.69001 7.33143 3.61912 7.62978 3.46192L8.02652 3.8615L2.00428 9.92689C1.33275 10.6046 0.955566 11.5229 0.955566 12.4804C0.955566 13.4378 1.33275 14.3562 2.00428 15.0339C2.33706 15.3695 2.73222 15.6358 3.16726 15.8175C3.60231 15.9992 4.06867 16.0927 4.53962 16.0927C5.01058 16.0927 5.47694 15.9992 5.91199 15.8175C6.34703 15.6358 6.74219 15.3695 7.07497 15.0339L13.0972 8.96852L13.7636 9.64281L12.7904 10.623C12.4459 10.9737 12.2527 11.447 12.2527 11.9403C12.2527 12.4336 12.4459 12.907 12.7904 13.2577C13.0662 13.5332 13.4209 13.7148 13.8044 13.7769C14.188 13.839 14.5813 13.7787 14.929 13.6042L15.5489 14.2285C15.3704 14.5779 15.3066 14.9753 15.3669 15.3634C15.4271 15.7516 15.6082 16.1105 15.884 16.3883C16.1598 16.6662 16.5162 16.8486 16.9016 16.9092C17.287 16.9699 17.6817 16.9057 18.0285 16.7259L18.6298 17.3502C18.4545 17.6994 18.3933 18.0955 18.4551 18.4818C18.5169 18.8682 18.6985 19.2249 18.9739 19.501C19.2628 19.7935 19.6404 19.9806 20.0469 20.0326C20.4533 20.0846 20.8654 19.9986 21.2179 19.7882L24.0074 21.349C24.1345 21.42 24.2773 21.4576 24.4227 21.4583C24.5716 21.4575 24.7179 21.4177 24.8469 21.3428C24.976 21.2678 25.0835 21.1604 25.1589 21.031C25.2342 20.9015 25.2749 20.7546 25.2768 20.6046C25.2786 20.4545 25.2417 20.3066 25.1697 20.1753L23.6137 17.3346ZM7.30122 2.37247C7.16075 2.5094 6.97293 2.58598 6.77743 2.58598C6.58193 2.58598 6.39411 2.5094 6.25364 2.37247C6.1273 2.2302 6.05988 2.0446 6.06529 1.85381C6.07071 1.66301 6.14856 1.48153 6.28277 1.34677C6.41698 1.212 6.59736 1.13419 6.78681 1.1293C6.97627 1.1244 7.16034 1.19281 7.30122 1.32047C7.36991 1.38949 7.42446 1.4715 7.46164 1.56176C7.49883 1.65202 7.51794 1.74877 7.51794 1.84649C7.51794 1.94421 7.49883 2.04096 7.46164 2.13122C7.42446 2.22148 7.36991 2.30346 7.30122 2.37247ZM6.3032 14.2753C6.07288 14.5176 5.79684 14.7111 5.49126 14.8446C5.18568 14.978 4.85677 15.0486 4.52373 15.0522C4.1907 15.0559 3.86029 14.9925 3.5519 14.8658C3.24351 14.7391 2.96335 14.5517 2.72785 14.3145C2.49234 14.0773 2.30622 13.7952 2.18045 13.4846C2.05467 13.174 1.99173 12.8412 1.99536 12.5058C1.99898 12.1704 2.0691 11.8391 2.20156 11.5313C2.33402 11.2235 2.52617 10.9455 2.76674 10.7136L7.41594 6.03107L10.9555 9.59285L6.3032 14.2753ZM11.7086 8.83119L8.17219 5.26937L10.1156 3.31209L13.652 6.8739L11.7086 8.83119ZM14.6346 12.496C14.4912 12.6401 14.2967 12.7208 14.0942 12.7205C13.8916 12.7202 13.6974 12.6389 13.5544 12.4944C13.4114 12.35 13.3312 12.1542 13.3315 11.9502C13.3318 11.7461 13.4125 11.5506 13.556 11.4065L14.9104 10.0424L15.3103 9.63968C15.3801 9.56311 15.4647 9.50157 15.5588 9.45876C15.6529 9.41594 15.7546 9.39274 15.8578 9.39054C15.961 9.38835 16.0636 9.40721 16.1594 9.44599C16.2552 9.48477 16.3423 9.54268 16.4153 9.61621C16.4883 9.68974 16.5457 9.77739 16.5843 9.87388C16.6228 9.97037 16.6415 10.0737 16.6393 10.1777C16.6372 10.2817 16.6141 10.3841 16.5716 10.4789C16.5291 10.5737 16.468 10.6588 16.392 10.7291L14.6346 12.496ZM15.7597 12.9112L16.8042 11.856L17.2722 12.3274L16.2277 13.3825L15.7597 12.9112ZM17.7186 15.602C17.6487 15.6786 17.5641 15.7401 17.4701 15.783C17.376 15.8258 17.2742 15.849 17.171 15.8512C17.0678 15.8534 16.9652 15.8345 16.8694 15.7957C16.7736 15.7569 16.6865 15.699 16.6135 15.6255C16.5405 15.552 16.483 15.4643 16.4445 15.3678C16.406 15.2713 16.3873 15.168 16.3895 15.064C16.3917 14.9601 16.4147 14.8576 16.4572 14.7629C16.4997 14.6681 16.5608 14.5829 16.6368 14.5126L18.3973 12.7426C18.4675 12.6702 18.5514 12.6127 18.644 12.5735C18.7366 12.5344 18.8362 12.5144 18.9366 12.5147C19.0877 12.5158 19.2351 12.5617 19.3605 12.6466C19.4858 12.7315 19.5835 12.8518 19.6413 12.9923C19.6992 13.1329 19.7147 13.2875 19.6858 13.4368C19.657 13.5862 19.585 13.7237 19.479 13.8321L17.7186 15.602ZM18.8436 16.0141L19.8882 14.9621L20.3562 15.4335L19.3116 16.4886L18.8436 16.0141ZM20.8025 18.7081C20.6567 18.848 20.4631 18.926 20.2617 18.926C20.0603 18.926 19.8666 18.848 19.7208 18.7081C19.5775 18.5635 19.497 18.3676 19.497 18.1634C19.497 17.9591 19.5775 17.7632 19.7208 17.6186L21.4813 15.8487C21.5521 15.7773 21.6362 15.7207 21.7287 15.6821C21.8212 15.6435 21.9204 15.6237 22.0206 15.6237C22.1207 15.6237 22.2199 15.6435 22.3124 15.6821C22.405 15.7207 22.4891 15.7773 22.5599 15.8487C22.6307 15.92 22.6869 16.0047 22.7252 16.0979C22.7635 16.1911 22.7833 16.2909 22.7833 16.3918C22.7833 16.4927 22.7635 16.5926 22.7252 16.6858C22.6869 16.779 22.6307 16.8637 22.5599 16.935L20.8025 18.7081ZM22.0423 18.9921L22.8358 18.1961L23.809 19.9755L22.0423 18.9921Z" fill="#D5A929"/>
</svg>
