<svg width="18" height="18" viewBox="0 0 18 18" fill="none" xmlns="http://www.w3.org/2000/svg">
<path d="M11.8803 3.36881e-05C10.9444 0.806174 9.75347 1.24916 8.52201 1.24916C7.29056 1.24916 6.09961 0.806174 5.16376 3.36881e-05C3.79422 0.00168733 2.4813 0.550553 1.51318 1.52619C0.545067 2.50182 0.00082008 3.82448 0 5.20382C0.01973 6.11014 0.229595 7.00204 0.615807 7.82088C1.00202 8.63973 1.55584 9.36702 2.24091 9.95502C2.62631 10.6579 2.83887 11.4436 2.8608 12.2463C2.88527 13.211 3.04065 14.1678 3.32262 15.0901L3.583 15.9423C3.69032 16.2982 3.90873 16.6098 4.20577 16.8308C4.5028 17.0518 4.86265 17.1705 5.23194 17.1692C5.62536 17.1679 6.00667 17.0319 6.31312 16.7834C6.61956 16.5349 6.83287 16.1887 6.91803 15.8019L7.84787 11.5377C7.88284 11.3806 7.96992 11.2402 8.0947 11.1396C8.21949 11.0389 8.37457 10.9841 8.53442 10.9841C8.69428 10.9841 8.84936 11.0389 8.97415 11.1396C9.09893 11.2402 9.18593 11.3806 9.22091 11.5377L10.1507 15.8019C10.2359 16.1887 10.4493 16.5349 10.7557 16.7834C11.0622 17.0319 11.4435 17.1679 11.8369 17.1692C12.2062 17.1705 12.566 17.0518 12.8631 16.8308C13.1601 16.6098 13.3785 16.2982 13.4858 15.9423L13.7462 15.0901C14.0281 14.1678 14.1835 13.211 14.208 12.2463C14.2299 11.4436 14.4425 10.6579 14.8279 9.95502C15.5134 9.36718 16.0677 8.63998 16.4544 7.82115C16.8411 7.00232 17.0516 6.11034 17.0719 5.20382C17.0711 4.51857 16.936 3.84024 16.6745 3.20763C16.413 2.57501 16.0302 2.00054 15.5479 1.51716C15.0657 1.03377 14.4936 0.650959 13.8642 0.390623C13.2348 0.130287 12.5606 -0.00243024 11.8803 3.36881e-05V3.36881e-05ZM14.1491 9.28386C14.1031 9.31913 14.0651 9.36379 14.0375 9.41494C13.5524 10.2725 13.2862 11.2378 13.2626 12.2244C13.2397 13.1031 13.099 13.9747 12.8442 14.8154L12.5839 15.6676C12.5356 15.8419 12.4302 15.9947 12.2848 16.101C12.1395 16.2074 11.9627 16.2611 11.7832 16.2535C11.6037 16.2459 11.432 16.1774 11.296 16.0592C11.16 15.9409 11.0677 15.7799 11.0341 15.6021L10.1043 11.3379C10.0238 10.9723 9.82193 10.6454 9.53199 10.411C9.24205 10.1767 8.88137 10.049 8.5096 10.049C8.13784 10.049 7.77716 10.1767 7.48722 10.411C7.19728 10.6454 6.99541 10.9723 6.91492 11.3379L5.98508 15.6021C5.95147 15.7799 5.85917 15.9409 5.72319 16.0592C5.58721 16.1774 5.41553 16.2459 5.23602 16.2535C5.05652 16.2611 4.87975 16.2074 4.7344 16.101C4.58905 15.9947 4.48365 15.8419 4.43535 15.6676L4.17497 14.8154C3.92019 13.9747 3.77949 13.1031 3.75659 12.2244C3.73302 11.2378 3.46678 10.2725 2.98172 9.41494C2.95414 9.36379 2.91608 9.31913 2.87011 9.28386C2.27082 8.78584 1.78508 8.16361 1.44599 7.45956C1.10689 6.75551 0.922452 5.98614 0.905095 5.20382C0.9043 4.35629 1.15427 3.52777 1.62313 2.82397C2.09199 2.12018 2.75846 1.57303 3.53745 1.25243C4.31643 0.931841 5.1726 0.852331 5.99666 1.02402C6.82072 1.19572 7.57526 1.61085 8.16402 2.21641C8.50888 2.57251 8.79083 2.98531 8.99776 3.43699C9.03454 3.51861 9.09382 3.58785 9.16854 3.63655C9.24326 3.68524 9.33032 3.71134 9.41932 3.7117C9.48572 3.71102 9.55119 3.69612 9.61144 3.66799C9.6677 3.64276 9.71839 3.60643 9.76051 3.56118C9.80264 3.51592 9.8354 3.46266 9.85677 3.40448C9.87814 3.34631 9.88772 3.28442 9.88499 3.22245C9.88226 3.16048 9.86721 3.09969 9.8408 3.04365C9.65817 2.64062 9.42483 2.26293 9.14652 1.91986C9.9054 1.27898 10.8651 0.929493 11.8555 0.933408C12.9787 0.935059 14.0554 1.38516 14.8497 2.18508C15.6439 2.985 16.0908 4.06944 16.0925 5.2007C16.0771 5.98074 15.8957 6.7484 15.5604 7.45175C15.2252 8.15509 14.7439 8.77774 14.1491 9.27761V9.28386Z" fill="#D5A929"/>
</svg>
